<?xml version="1.0" encoding="UTF-8" standalone="no"?>
<!-- Created with Inkscape (http://www.inkscape.org/) -->

<svg
   xmlns:dc="http://purl.org/dc/elements/1.1/"
   xmlns:cc="http://creativecommons.org/ns#"
   xmlns:rdf="http://www.w3.org/1999/02/22-rdf-syntax-ns#"
   xmlns:svg="http://www.w3.org/2000/svg"
   xmlns="http://www.w3.org/2000/svg"
   xmlns:sodipodi="http://sodipodi.sourceforge.net/DTD/sodipodi-0.dtd"
   xmlns:inkscape="http://www.inkscape.org/namespaces/inkscape"
   width="24"
   height="24"
   id="svg2"
   version="1.1"
   inkscape:version="0.48.4 r9939"
   sodipodi:docname="ic_category_house.svg">
  <defs
     id="defs4" />
  <sodipodi:namedview
     id="base"
     pagecolor="#ffffff"
     bordercolor="#666666"
     borderopacity="1.0"
     inkscape:pageopacity="0.0"
     inkscape:pageshadow="2"
     inkscape:zoom="15.839192"
     inkscape:cx="8.2823176"
     inkscape:cy="3.4365962"
     inkscape:document-units="px"
     inkscape:current-layer="layer1"
     showgrid="true"
     inkscape:window-width="1280"
     inkscape:window-height="1000"
     inkscape:window-x="1680"
     inkscape:window-y="24"
     inkscape:window-maximized="1"
     inkscape:snap-global="false">
    <inkscape:grid
       type="xygrid"
       id="grid2985"
       empspacing="5"
       visible="true"
       enabled="true"
       snapvisiblegridlinesonly="true" />
  </sodipodi:namedview>
  <metadata
     id="metadata7">
    <rdf:RDF>
      <cc:Work
         rdf:about="">
        <dc:format>image/svg+xml</dc:format>
        <dc:type
           rdf:resource="http://purl.org/dc/dcmitype/StillImage" />
        <dc:title />
      </cc:Work>
    </rdf:RDF>
  </metadata>
  <g
     inkscape:groupmode="layer"
     id="layer2"
     inkscape:label="Layer">
    <rect
       style="fill:#652321;fill-opacity:1;fill-rule:nonzero;stroke:none"
       id="rect4104"
       width="2.8518171"
       height="4.5137806"
       x="5.5375748"
       y="6.1846066"
       rx="1.4259086"
       ry="0.56422257" />
  </g>
  <g
     inkscape:groupmode="layer"
     id="layer3"
     inkscape:label="Layer#1" />
  <g
     inkscape:label="Layer 1"
     inkscape:groupmode="layer"
     id="layer1"
     transform="translate(0,-1028.3622)">
    <path
       style="fill:#313df2;fill-opacity:1;stroke:#89d7ff;stroke-width:1.00200498;stroke-linecap:round;stroke-linejoin:miter;stroke-miterlimit:4;stroke-opacity:1;stroke-dasharray:none"
       d="m 11.342003,1041.0546 c 1.315995,0 1.315995,0 1.315995,0 l 0,0"
       id="path3987"
       inkscape:connector-curvature="0" />
    <path
       style="fill:#cc0000;fill-opacity:1;fill-rule:nonzero;stroke:none"
       d="m 5.6256617,1040.4913 c -0.3008151,0 -0.5346219,0.2092 -0.5346219,0.4816 l 0,8.9078 c 0,0.2724 0.2338068,0.4815 0.5346219,0.4815 l 7.3519313,0 0,-5.7094 c 0,-0.2745 0.325479,-0.4813 0.740246,-0.4813 l 2.138486,0 c 0.414766,0 0.718722,0.2078 0.740247,0.4813 l 0,5.7094 1.777768,0 c 0.300815,0 0.534623,-0.2091 0.534623,-0.4815 l 0,-8.9078 c 0,-0.2724 -0.233808,-0.4816 -0.534623,-0.4816 z m 2.2888874,2.5797 2.1302689,0 c 0.300815,0 0.534624,0.2069 0.534624,0.4813 l 0,2.3387 c 0,0.2746 -0.233809,0.4816 -0.534624,0.4816 l -2.1302689,0 c -0.3008153,0 -0.5346219,-0.207 -0.5346219,-0.4816 l 0,-2.3387 c 0,-0.2744 0.2338066,-0.4813 0.5346219,-0.4813 z"
       id="rect4100"
       inkscape:connector-curvature="0"
       sodipodi:nodetypes="sssscsssscssssssssssssss" />
    <path
       style="fill:#cc0000;fill-opacity:1;stroke:#1b2587;stroke-width:2.56230617;stroke-linecap:round;stroke-linejoin:round;stroke-miterlimit:4;stroke-opacity:1;stroke-dasharray:none"
       d="m 3.2810501,1042.294 c 8.7189509,-7.1377 8.7189509,-7.1377 8.7189509,-7.1377 l 8.718949,7.1377"
       id="path4102"
       inkscape:connector-curvature="0" />
    <path
       sodipodi:type="arc"
       style="fill:#000000;fill-opacity:1;fill-rule:nonzero;stroke:none"
       id="path4112"
       sodipodi:cx="14.5"
       sodipodi:cy="4.5"
       sodipodi:rx="0.5"
       sodipodi:ry="0.5"
       d="m 15,4.5 a 0.5,0.5 0 1 1 -1,0 0.5,0.5 0 1 1 1,0 z"
       transform="matrix(1.6596112,0,0,1.3774389,-16.226467,1027.3509)" />
    <path
       transform="matrix(2.3131777,0,0,1.5883133,-23.768269,1024.7876)"
       d="m 15,4.5 a 0.5,0.5 0 1 1 -1,0 0.5,0.5 0 1 1 1,0 z"
       sodipodi:ry="0.5"
       sodipodi:rx="0.5"
       sodipodi:cy="4.5"
       sodipodi:cx="14.5"
       id="path4119"
       style="fill:#000000;fill-opacity:1;fill-rule:nonzero;stroke:none"
       sodipodi:type="arc" />
    <path
       sodipodi:type="arc"
       style="fill:#000000;fill-opacity:1;fill-rule:nonzero;stroke:none"
       id="path4121"
       sodipodi:cx="14.5"
       sodipodi:cy="4.5"
       sodipodi:rx="0.5"
       sodipodi:ry="0.5"
       d="m 15,4.5 a 0.5,0.5 0 1 1 -1,0 0.5,0.5 0 1 1 1,0 z"
       transform="matrix(3.484656,0,0,2.0256402,-36.722247,1022.2596)" />
  </g>
</svg>
