<?xml version="1.0" encoding="UTF-8" standalone="no"?>
<!-- Created with Inkscape (http://www.inkscape.org/) -->

<svg
   xmlns:dc="http://purl.org/dc/elements/1.1/"
   xmlns:cc="http://creativecommons.org/ns#"
   xmlns:rdf="http://www.w3.org/1999/02/22-rdf-syntax-ns#"
   xmlns:svg="http://www.w3.org/2000/svg"
   xmlns="http://www.w3.org/2000/svg"
   xmlns:sodipodi="http://sodipodi.sourceforge.net/DTD/sodipodi-0.dtd"
   xmlns:inkscape="http://www.inkscape.org/namespaces/inkscape"
   width="24"
   height="24"
   id="svg2"
   version="1.1"
   inkscape:version="0.48.4 r9939"
   sodipodi:docname="ic_category_house.svg">
  <defs
     id="defs4" />
  <sodipodi:namedview
     id="base"
     pagecolor="#ffffff"
     bordercolor="#666666"
     borderopacity="1.0"
     inkscape:pageopacity="0.0"
     inkscape:pageshadow="2"
     inkscape:zoom="22.4"
     inkscape:cx="4.1343091"
     inkscape:cy="11.316008"
     inkscape:document-units="px"
     inkscape:current-layer="layer1"
     showgrid="true"
     inkscape:window-width="1680"
     inkscape:window-height="1026"
     inkscape:window-x="0"
     inkscape:window-y="24"
     inkscape:window-maximized="1">
    <inkscape:grid
       type="xygrid"
       id="grid2985"
       empspacing="5"
       visible="true"
       enabled="true"
       snapvisiblegridlinesonly="true" />
  </sodipodi:namedview>
  <metadata
     id="metadata7">
    <rdf:RDF>
      <cc:Work
         rdf:about="">
        <dc:format>image/svg+xml</dc:format>
        <dc:type
           rdf:resource="http://purl.org/dc/dcmitype/StillImage" />
        <dc:title />
      </cc:Work>
    </rdf:RDF>
  </metadata>
  <g
     inkscape:groupmode="layer"
     id="layer2"
     inkscape:label="Layer">
    <rect
       style="fill:#652321;fill-opacity:1;fill-rule:nonzero;stroke:none"
       id="rect4104"
       width="2.9171863"
       height="4.4115806"
       x="5.389442"
       y="7.0439062"
       rx="1.4585931"
       ry="0.55144757" />
  </g>
  <g
     inkscape:label="Layer 1"
     inkscape:groupmode="layer"
     id="layer1"
     transform="translate(0,-1028.3622)">
    <path
       style="fill:#313df2;fill-opacity:1;stroke:#89d7ff;stroke-width:0.89977908;stroke-linecap:round;stroke-linejoin:miter;stroke-miterlimit:4;stroke-opacity:1;stroke-dasharray:none"
       d="m 11.395516,1040.8373 c 1.208967,0 1.208967,0 1.208967,0 l 0,0"
       id="path3987"
       inkscape:connector-curvature="0" />
    <path
       style="fill:#006c14;fill-opacity:1;fill-rule:nonzero;stroke:#170037;stroke-width:0.59330171;stroke-linecap:round;stroke-linejoin:round;stroke-miterlimit:4;stroke-opacity:1;stroke-dasharray:none"
       d="m 6.1440744,1040.3429 c -0.2763505,0 -0.4911422,0.1836 -0.4911422,0.4227 l 0,7.8188 c 0,0.2392 0.2147917,0.4227 0.4911422,0.4227 l 7.3671326,0 0,-5.0114 c 0,-0.241 0.299009,-0.4226 0.680043,-0.4226 l 1.964568,0 c 0.381032,0 0.680044,0.1816 0.680044,0.4226 l 0,5.0114 1.020063,0 c 0.276351,0 0.491142,-0.1835 0.491142,-0.4227 l 0,-7.8188 c 0,-0.2391 -0.214791,-0.4227 -0.491142,-0.4227 l -11.7118506,0 z m 1.5112066,2.2642 2.644611,0 c 0.27635,0 0.491144,0.1816 0.491144,0.4225 l 0,2.0529 c 0,0.241 -0.214794,0.4227 -0.491144,0.4227 l -2.644611,0 c -0.2763505,0 -0.4911422,-0.1817 -0.4911422,-0.4227 l 0,-2.0529 c 0,-0.2409 0.2147917,-0.4225 0.4911422,-0.4225 z"
       id="rect4100"
       inkscape:connector-curvature="0" />
    <path
       style="fill:#a40000;fill-opacity:1;stroke:#d96b18;stroke-width:1.94200933;stroke-linecap:round;stroke-linejoin:round;stroke-miterlimit:4;stroke-opacity:1;stroke-dasharray:none"
       d="M 3.9901457,1041.9252 C 12,1035.6601 12,1035.6601 12,1035.6601 l 8.009854,6.2651"
       id="path4102"
       inkscape:connector-curvature="0" />
    <path
       sodipodi:type="arc"
       style="fill:#000000;fill-opacity:1;fill-rule:nonzero;stroke:none"
       id="path4112"
       sodipodi:cx="14.5"
       sodipodi:cy="4.5"
       sodipodi:rx="0.5"
       sodipodi:ry="0.5"
       d="m 15,4.5 a 0.5,0.5 0 1 1 -1,0 0.5,0.5 0 1 1 1,0 z"
       transform="matrix(1.524638,0,0,1.2090493,-15.173747,1029.0093)" />
    <path
       transform="matrix(2.125051,0,0,1.3941445,-22.38284,1026.9598)"
       d="m 15,4.5 a 0.5,0.5 0 1 1 -1,0 0.5,0.5 0 1 1 1,0 z"
       sodipodi:ry="0.5"
       sodipodi:rx="0.5"
       sodipodi:cy="4.5"
       sodipodi:cx="14.5"
       id="path4119"
       style="fill:#000000;fill-opacity:1;fill-rule:nonzero;stroke:none"
       sodipodi:type="arc" />
    <path
       sodipodi:type="arc"
       style="fill:#000000;fill-opacity:1;fill-rule:nonzero;stroke:none"
       id="path4121"
       sodipodi:cx="14.5"
       sodipodi:cy="4.5"
       sodipodi:rx="0.5"
       sodipodi:ry="0.5"
       d="m 15,4.5 a 0.5,0.5 0 1 1 -1,0 0.5,0.5 0 1 1 1,0 z"
       transform="matrix(3.2012551,0,0,1.778009,-35.245528,1024.34)" />
  </g>
</svg>
