<?xml version="1.0" encoding="UTF-8" standalone="no"?>
<!-- Created with Inkscape (http://www.inkscape.org/) -->

<svg
   xmlns:dc="http://purl.org/dc/elements/1.1/"
   xmlns:cc="http://creativecommons.org/ns#"
   xmlns:rdf="http://www.w3.org/1999/02/22-rdf-syntax-ns#"
   xmlns:svg="http://www.w3.org/2000/svg"
   xmlns="http://www.w3.org/2000/svg"
   xmlns:sodipodi="http://sodipodi.sourceforge.net/DTD/sodipodi-0.dtd"
   xmlns:inkscape="http://www.inkscape.org/namespaces/inkscape"
   width="24"
   height="24"
   id="svg2"
   version="1.1"
   inkscape:version="0.48.4 r9939"
   sodipodi:docname="ic_category_important.svg">
  <defs
     id="defs4" />
  <sodipodi:namedview
     id="base"
     pagecolor="#ffffff"
     bordercolor="#666666"
     borderopacity="1.0"
     inkscape:pageopacity="0.0"
     inkscape:pageshadow="2"
     inkscape:zoom="22.4"
     inkscape:cx="8.8731743"
     inkscape:cy="12.210222"
     inkscape:document-units="px"
     inkscape:current-layer="layer1"
     showgrid="true"
     inkscape:window-width="1680"
     inkscape:window-height="1026"
     inkscape:window-x="0"
     inkscape:window-y="24"
     inkscape:window-maximized="1">
    <inkscape:grid
       type="xygrid"
       id="grid2985"
       empspacing="5"
       visible="true"
       enabled="true"
       snapvisiblegridlinesonly="true" />
  </sodipodi:namedview>
  <metadata
     id="metadata7">
    <rdf:RDF>
      <cc:Work
         rdf:about="">
        <dc:format>image/svg+xml</dc:format>
        <dc:type
           rdf:resource="http://purl.org/dc/dcmitype/StillImage" />
        <dc:title></dc:title>
      </cc:Work>
    </rdf:RDF>
  </metadata>
  <g
     inkscape:label="Layer 1"
     inkscape:groupmode="layer"
     id="layer1"
     transform="translate(0,-1028.3622)">
    <path
       style="fill:#a41f3f;fill-opacity:1;fill-rule:nonzero;stroke:none"
       d="m 5.8725796,1031.3854 c -0.4207073,0.031 -0.8272972,0.1104 -1.210808,0.2662 -3.068087,1.2464 -3.5499074,6.1693 -1.1007346,10.9796 1.989953,3.9084 5.2858982,6.5368 8.108745,6.7209 0.205078,0.014 0.424685,0.013 0.623749,0 0.01192,-8e-4 0.02476,8e-4 0.03669,0 0.024,0 0.04949,0 0.07338,0 2.799382,-0.243 6.07061,-2.862 8.035362,-6.7209 2.449173,-4.8103 1.967353,-9.7332 -1.100734,-10.9796 -2.144771,-0.8714 -4.991776,0.2809 -7.338231,2.6949 -1.927498,-1.9841 -4.1944019,-3.103 -6.1274224,-2.9611 z"
       id="path3755"
       inkscape:connector-curvature="0" />
  </g>
</svg>
