<?xml version="1.0" encoding="UTF-8" standalone="no"?>
<!-- Created with Inkscape (http://www.inkscape.org/) -->

<svg
   xmlns:dc="http://purl.org/dc/elements/1.1/"
   xmlns:cc="http://creativecommons.org/ns#"
   xmlns:rdf="http://www.w3.org/1999/02/22-rdf-syntax-ns#"
   xmlns:svg="http://www.w3.org/2000/svg"
   xmlns="http://www.w3.org/2000/svg"
   xmlns:sodipodi="http://sodipodi.sourceforge.net/DTD/sodipodi-0.dtd"
   xmlns:inkscape="http://www.inkscape.org/namespaces/inkscape"
   width="24"
   height="24"
   id="svg2"
   version="1.1"
   inkscape:version="0.48.4 r9939"
   sodipodi:docname="ic_category_car.svg">
  <defs
     id="defs4" />
  <sodipodi:namedview
     id="base"
     pagecolor="#ffffff"
     bordercolor="#666666"
     borderopacity="1.0"
     inkscape:pageopacity="0.0"
     inkscape:pageshadow="2"
     inkscape:zoom="22.4"
     inkscape:cx="16.606825"
     inkscape:cy="13.848942"
     inkscape:document-units="px"
     inkscape:current-layer="layer1"
     showgrid="true"
     inkscape:window-width="1280"
     inkscape:window-height="1000"
     inkscape:window-x="1680"
     inkscape:window-y="24"
     inkscape:window-maximized="1">
    <inkscape:grid
       type="xygrid"
       id="grid2985"
       empspacing="5"
       visible="true"
       enabled="true"
       snapvisiblegridlinesonly="true" />
  </sodipodi:namedview>
  <metadata
     id="metadata7">
    <rdf:RDF>
      <cc:Work
         rdf:about="">
        <dc:format>image/svg+xml</dc:format>
        <dc:type
           rdf:resource="http://purl.org/dc/dcmitype/StillImage" />
        <dc:title />
      </cc:Work>
    </rdf:RDF>
  </metadata>
  <g
     inkscape:groupmode="layer"
     id="layer2"
     inkscape:label="Layer">
    <path
       style="fill:#933900;fill-opacity:1;stroke:#933900;stroke-width:1.43508934999999993px;stroke-linecap:round;stroke-linejoin:round;stroke-opacity:1"
       d="m 4.1068776,10.044926 3.1000426,-3.9856768 6.2000848,0 4.650065,3.9856768"
       id="path4192"
       inkscape:connector-curvature="0" />
    <path
       style="fill:#89d7ff;fill-opacity:1;stroke:#89d7ff;stroke-width:0;stroke-linecap:butt;stroke-linejoin:miter;stroke-miterlimit:4;stroke-opacity:1;stroke-dasharray:none"
       d="m 5.0122972,9.9211348 2.1854693,-3.2563401 2.1854692,0 0,3.2563401 z"
       id="path4200"
       inkscape:connector-curvature="0" />
    <path
       inkscape:connector-curvature="0"
       id="path4202"
       d="m 17.42144,9.9842693 -3.878978,-3.4233271 -2.761724,0 0,3.4233271 z"
       style="fill:#89d7ff;fill-opacity:1;stroke:#89d7ff;stroke-width:0;stroke-linecap:butt;stroke-linejoin:miter;stroke-miterlimit:4;stroke-opacity:1;stroke-dasharray:none"
       sodipodi:nodetypes="ccccc" />
  </g>
  <g
     inkscape:label="Layer 1"
     inkscape:groupmode="layer"
     id="layer1"
     transform="translate(0,-1028.3622)">
    <path
       style="fill:#2b4ea0;fill-opacity:1;fill-rule:nonzero;stroke:none"
       d="M 2.9375003,1038.3317 C 2.4122106,1038.3317 2,1038.5441 2,1038.8254 l 0,4.6567 c 0,0.2812 0.4122106,0.4935 0.9375003,0.4935 l 0.8854164,0 c -0.088602,-0.1739 -0.1041674,-0.3353 -0.1041674,-0.5291 0,-0.9355 1.1192882,-1.6932 2.5000001,-1.6932 1.380712,0 2.4999999,0.7577 2.4999999,1.6932 0,0.1955 -0.066849,0.3552 -0.15625,0.5291 l 6.9270837,0 c -0.09994,-0.183 -0.15625,-0.3577 -0.15625,-0.5644 0,-0.9348 1.11929,-1.693 2.499998,-1.693 1.380713,0 2.500003,0.7582 2.500003,1.693 0,0.2067 -0.0563,0.3814 -0.156251,0.5644 l 0.885416,0 c 0.525291,0 0.937501,-0.2123 0.937501,-0.4935 l 0,-4.6567 c 0,-0.2813 -0.41221,-0.4937 -0.937501,-0.4937 l -18.1249996,0 z"
       id="rect4178"
       inkscape:connector-curvature="0" />
    <path
       sodipodi:type="arc"
       style="fill:#e5b900;fill-opacity:1;fill-rule:nonzero;stroke:none"
       id="path4188"
       sodipodi:cx="2"
       sodipodi:cy="18"
       sodipodi:rx="1"
       sodipodi:ry="1"
       d="m 3,18 c 0,0.552285 -0.4477153,1 -1,1 -0.5522847,0 -1,-0.447715 -1,-1 0,-0.552285 0.4477153,-1 1,-1 0.5522847,0 1,0.447715 1,1 z"
       transform="matrix(2.8377734,0,0,2.7863566,0.5613457,993.9003)" />
    <path
       transform="matrix(2.8767376,0,0,2.8894022,12.097607,992.05106)"
       d="m 3,18 c 0,0.552285 -0.4477153,1 -1,1 -0.5522847,0 -1,-0.447715 -1,-1 0,-0.552285 0.4477153,-1 1,-1 0.5522847,0 1,0.447715 1,1 z"
       sodipodi:ry="1"
       sodipodi:rx="1"
       sodipodi:cy="18"
       sodipodi:cx="2"
       id="path4190"
       style="fill:#e5b900;fill-opacity:1;fill-rule:nonzero;stroke:none"
       sodipodi:type="arc" />
  </g>
</svg>
