<?xml version="1.0" encoding="UTF-8" standalone="no"?>
<!-- Created with Inkscape (http://www.inkscape.org/) -->

<svg
   xmlns:dc="http://purl.org/dc/elements/1.1/"
   xmlns:cc="http://creativecommons.org/ns#"
   xmlns:rdf="http://www.w3.org/1999/02/22-rdf-syntax-ns#"
   xmlns:svg="http://www.w3.org/2000/svg"
   xmlns="http://www.w3.org/2000/svg"
   xmlns:sodipodi="http://sodipodi.sourceforge.net/DTD/sodipodi-0.dtd"
   xmlns:inkscape="http://www.inkscape.org/namespaces/inkscape"
   width="24"
   height="24"
   id="svg2"
   version="1.1"
   inkscape:version="0.48.4 r9939"
   sodipodi:docname="ic_category_phone.svg">
  <defs
     id="defs4" />
  <sodipodi:namedview
     id="base"
     pagecolor="#ffffff"
     bordercolor="#666666"
     borderopacity="1.0"
     inkscape:pageopacity="0.0"
     inkscape:pageshadow="2"
     inkscape:zoom="11.2"
     inkscape:cx="-6.8571599"
     inkscape:cy="2.6056787"
     inkscape:document-units="px"
     inkscape:current-layer="layer2"
     showgrid="true"
     inkscape:window-width="1680"
     inkscape:window-height="1026"
     inkscape:window-x="0"
     inkscape:window-y="24"
     inkscape:window-maximized="1"
     showguides="true"
     inkscape:guide-bbox="true"
     inkscape:snap-global="false">
    <inkscape:grid
       type="xygrid"
       id="grid2985"
       empspacing="5"
       visible="true"
       enabled="true"
       snapvisiblegridlinesonly="true" />
  </sodipodi:namedview>
  <metadata
     id="metadata7">
    <rdf:RDF>
      <cc:Work
         rdf:about="">
        <dc:format>image/svg+xml</dc:format>
        <dc:type
           rdf:resource="http://purl.org/dc/dcmitype/StillImage" />
        <dc:title />
      </cc:Work>
    </rdf:RDF>
  </metadata>
  <g
     inkscape:groupmode="layer"
     id="layer2"
     inkscape:label="Layer">
    <rect
       style="fill:#97a3ff;fill-opacity:1;fill-rule:nonzero;stroke:none"
       id="rect3764"
       width="9.643219"
       height="14.063134"
       x="7.1783905"
       y="3.9368656"
       rx="0.5667516"
       ry="0.4500168" />
  </g>
  <g
     inkscape:label="Layer 1"
     inkscape:groupmode="layer"
     id="layer1"
     transform="translate(0,-1028.3622)">
    <path
       style="fill:#64151a;fill-opacity:1;fill-rule:nonzero;stroke:none"
       d="m 8.1447696,1031.3997 c -0.1671064,0.067 -1.5277773,0.2515 -1.5277773,0.4383 l 0,17.0486 c 0,0.2487 2.7382477,0.4382 2.996011,0.4382 l 4.7739927,0 c 0.257763,0 2.996012,-0.1895 2.996012,-0.4382 l 0,-17.0486 c 0,-0.2488 -1.349503,-0.4383 -1.607267,-0.4383 -2.482489,0 -5.179239,0 -7.6309714,0 z m 0.6887546,1.3144 6.3329508,0 c 0.257763,0 0.609266,0.1896 0.609266,0.4381 l 0,11.8704 c 0,0.2488 -0.351503,0.804 -0.609266,0.804 l -6.3329508,0 c -0.2577629,0 -0.6887546,-0.5551 -0.6887546,-0.804 l 0,-11.8704 c 0,-0.2485 0.4309917,-0.4381 0.6887546,-0.4381 z"
       id="rect4842"
       inkscape:connector-curvature="0"
       sodipodi:nodetypes="cssssssccsssssssss" />
    <path
       style="fill:#000000;fill-opacity:1;stroke:none"
       d="m 11.230573,1047.496 c 1.538854,0 1.538854,0 1.538854,0"
       id="path4847"
       inkscape:connector-curvature="0" />
    <path
       style="fill:#e09500;fill-opacity:1;stroke:none"
       d="m 10.60976,1047.0473 2.712471,0 c 0,0 0.399585,0.2218 0,0.5403 -0.399586,0.3182 -2.312885,0.3182 -2.712471,0 -0.399584,-0.3185 0,-0.5403 0,-0.5403"
       id="path3762"
       inkscape:connector-curvature="0"
       sodipodi:nodetypes="cczzc" />
  </g>
  <g
     inkscape:groupmode="layer"
     id="layer3"
     inkscape:label="Layer#1" />
</svg>
