<?xml version="1.0" encoding="UTF-8" standalone="no"?>
<!-- Created with Inkscape (http://www.inkscape.org/) -->

<svg
   xmlns:dc="http://purl.org/dc/elements/1.1/"
   xmlns:cc="http://creativecommons.org/ns#"
   xmlns:rdf="http://www.w3.org/1999/02/22-rdf-syntax-ns#"
   xmlns:svg="http://www.w3.org/2000/svg"
   xmlns="http://www.w3.org/2000/svg"
   xmlns:sodipodi="http://sodipodi.sourceforge.net/DTD/sodipodi-0.dtd"
   xmlns:inkscape="http://www.inkscape.org/namespaces/inkscape"
   width="24"
   height="24"
   id="svg2"
   version="1.1"
   inkscape:version="0.48.4 r9939"
   sodipodi:docname="ic_category_house.svg">
  <defs
     id="defs4" />
  <sodipodi:namedview
     id="base"
     pagecolor="#ffffff"
     bordercolor="#666666"
     borderopacity="1.0"
     inkscape:pageopacity="0.0"
     inkscape:pageshadow="2"
     inkscape:zoom="22.4"
     inkscape:cx="-3.7837749"
     inkscape:cy="11.338645"
     inkscape:document-units="px"
     inkscape:current-layer="layer1"
     showgrid="true"
     inkscape:window-width="1680"
     inkscape:window-height="1026"
     inkscape:window-x="0"
     inkscape:window-y="24"
     inkscape:window-maximized="1">
    <inkscape:grid
       type="xygrid"
       id="grid2985"
       empspacing="5"
       visible="true"
       enabled="true"
       snapvisiblegridlinesonly="true" />
  </sodipodi:namedview>
  <metadata
     id="metadata7">
    <rdf:RDF>
      <cc:Work
         rdf:about="">
        <dc:format>image/svg+xml</dc:format>
        <dc:type
           rdf:resource="http://purl.org/dc/dcmitype/StillImage" />
        <dc:title />
      </cc:Work>
    </rdf:RDF>
  </metadata>
  <g
     inkscape:groupmode="layer"
     id="layer2"
     inkscape:label="Layer">
    <rect
       style="fill:#652321;fill-opacity:1;fill-rule:nonzero;stroke:none"
       id="rect4104"
       width="2.9171863"
       height="4.4115806"
       x="5.389442"
       y="7.0439062"
       rx="1.4585931"
       ry="0.55144757" />
  </g>
  <g
     inkscape:label="Layer 1"
     inkscape:groupmode="layer"
     id="layer1"
     transform="translate(0,-1028.3622)">
    <path
       style="fill:#313df2;fill-opacity:1;stroke:#89d7ff;stroke-width:1.00188529;stroke-linecap:round;stroke-linejoin:miter;stroke-miterlimit:4;stroke-opacity:1;stroke-dasharray:none"
       d="m 11.32692,1040.8737 c 1.346159,0 1.346159,0 1.346159,0 l 0,0"
       id="path3987"
       inkscape:connector-curvature="0" />
    <path
       style="fill:#006c61;fill-opacity:1;fill-rule:nonzero;stroke:#170037;stroke-width:0.66062915000000000;stroke-linecap:round;stroke-linejoin:round;stroke-miterlimit:4;stroke-opacity:1;stroke-dasharray:none"
       d="m 5.4795485,1040.3232 c -0.3077105,0 -0.5468766,0.2045 -0.5468766,0.4707 l 0,8.7061 c 0,0.2663 0.2391661,0.4706 0.5468766,0.4706 l 8.2031495,0 0,-5.5801 c 0,-0.2683 0.33294,-0.4705 0.757214,-0.4705 l 2.187505,0 c 0.424272,0 0.757215,0.2022 0.757215,0.4705 l 0,5.5801 1.135819,0 c 0.307711,0 0.546877,-0.2043 0.546877,-0.4706 l 0,-8.7061 c 0,-0.2662 -0.239166,-0.4707 -0.546877,-0.4707 l -13.0409025,0 z m 1.6826972,2.5212 2.9447193,0 c 0.30771,0 0.546879,0.2022 0.546879,0.4704 l 0,2.2859 c 0,0.2683 -0.239169,0.4706 -0.546879,0.4706 l -2.9447193,0 c -0.3077105,0 -0.5468766,-0.2023 -0.5468766,-0.4706 l 0,-2.2859 c 0,-0.2682 0.2391661,-0.4704 0.5468766,-0.4704 z"
       id="rect4100"
       inkscape:connector-curvature="0" />
    <path
       style="fill:#ee8f00;fill-opacity:1;stroke:#a40000;stroke-width:2.16238712999999994;stroke-linecap:round;stroke-linejoin:round;stroke-miterlimit:4;stroke-opacity:1;stroke-dasharray:none"
       d="M 3.0811936,1042.0851 C 12,1035.109 12,1035.109 12,1035.109 l 8.918806,6.9761"
       id="path4102"
       inkscape:connector-curvature="0" />
    <path
       sodipodi:type="arc"
       style="fill:#000000;fill-opacity:1;fill-rule:nonzero;stroke:none"
       id="path4112"
       sodipodi:cx="14.5"
       sodipodi:cy="4.5"
       sodipodi:rx="0.5"
       sodipodi:ry="0.5"
       d="m 15,4.5 a 0.5,0.5 0 1 1 -1,0 0.5,0.5 0 1 1 1,0 z"
       transform="matrix(1.6976528,0,0,1.3462513,-18.257403,1027.7035)" />
    <path
       transform="matrix(2.3662002,0,0,1.552351,-26.284579,1025.4214)"
       d="m 15,4.5 a 0.5,0.5 0 1 1 -1,0 0.5,0.5 0 1 1 1,0 z"
       sodipodi:ry="0.5"
       sodipodi:rx="0.5"
       sodipodi:cy="4.5"
       sodipodi:cx="14.5"
       id="path4119"
       style="fill:#000000;fill-opacity:1;fill-rule:nonzero;stroke:none"
       sodipodi:type="arc" />
    <path
       sodipodi:type="arc"
       style="fill:#000000;fill-opacity:1;fill-rule:nonzero;stroke:none"
       id="path4121"
       sodipodi:cx="14.5"
       sodipodi:cy="4.5"
       sodipodi:rx="0.5"
       sodipodi:ry="0.5"
       d="m 15,4.5 a 0.5,0.5 0 1 1 -1,0 0.5,0.5 0 1 1 1,0 z"
       transform="matrix(3.5645312,0,0,1.9797761,-40.606915,1022.5043)" />
  </g>
</svg>
