<?xml version="1.0" encoding="UTF-8" standalone="no"?>
<!-- Created with Inkscape (http://www.inkscape.org/) -->

<svg
   xmlns:dc="http://purl.org/dc/elements/1.1/"
   xmlns:cc="http://creativecommons.org/ns#"
   xmlns:rdf="http://www.w3.org/1999/02/22-rdf-syntax-ns#"
   xmlns:svg="http://www.w3.org/2000/svg"
   xmlns="http://www.w3.org/2000/svg"
   xmlns:sodipodi="http://sodipodi.sourceforge.net/DTD/sodipodi-0.dtd"
   xmlns:inkscape="http://www.inkscape.org/namespaces/inkscape"
   width="24"
   height="24"
   id="svg2"
   version="1.1"
   inkscape:version="0.48.4 r9939"
   sodipodi:docname="ic_category_work.svg">
  <defs
     id="defs4" />
  <sodipodi:namedview
     id="base"
     pagecolor="#ffffff"
     bordercolor="#666666"
     borderopacity="1.0"
     inkscape:pageopacity="0.0"
     inkscape:pageshadow="2"
     inkscape:zoom="22.4"
     inkscape:cx="11.265106"
     inkscape:cy="9.3605843"
     inkscape:document-units="px"
     inkscape:current-layer="layer1"
     showgrid="true"
     inkscape:window-width="1147"
     inkscape:window-height="996"
     inkscape:window-x="0"
     inkscape:window-y="24"
     inkscape:window-maximized="0"
     inkscape:snap-global="true">
    <inkscape:grid
       type="xygrid"
       id="grid2985"
       empspacing="5"
       visible="true"
       enabled="true"
       snapvisiblegridlinesonly="true" />
  </sodipodi:namedview>
  <metadata
     id="metadata7">
    <rdf:RDF>
      <cc:Work
         rdf:about="">
        <dc:format>image/svg+xml</dc:format>
        <dc:type
           rdf:resource="http://purl.org/dc/dcmitype/StillImage" />
        <dc:title />
      </cc:Work>
    </rdf:RDF>
  </metadata>
  <g
     inkscape:label="Layer 1"
     inkscape:groupmode="layer"
     id="layer1"
     transform="translate(0,-1028.3622)">
    <path
       style="fill:#4b3d2a;fill-opacity:1;stroke:none"
       d="m 3.5874799,1037.2494 c -0.3329393,0 -0.5991503,0.2429 -0.5991503,0.5612 l 0,9.2206 c 0,0.3183 0.266211,0.5612 0.5991503,0.5612 l 16.8161511,0 c 0.33294,0 0.59915,-0.2429 0.59915,-0.5612 l 0,-9.2206 c 0,-0.3183 -0.26621,-0.5612 -0.59915,-0.5612 z"
       id="rect3959"
       inkscape:connector-curvature="0"
       sodipodi:nodetypes="sssssssss" />
    <path
       style="fill:#4b3d2a;fill-opacity:1;stroke:none"
       d="m 6.8758532,1037.2651 c 0,0 1.6532882,-2.4248 2.9359448,-2.959 1.355128,-0.5645 3.048791,-0.5645 4.403918,0 1.282657,0.5342 2.935944,2.959 2.935944,2.959 l -1.955864,0 c 0,0 -0.619874,-1.1262 -1.467973,-1.4796 -0.848099,-0.3532 -2.580033,-0.3532 -3.428132,0 -0.8481,0.3534 -1.467974,1.4796 -1.467974,1.4796 z"
       id="path3762"
       inkscape:connector-curvature="0"
       sodipodi:nodetypes="csscczzcc" />
    <path
       sodipodi:type="arc"
       style="fill:#000000;fill-opacity:0.48858451;fill-rule:nonzero;stroke:none"
       id="path3774"
       sodipodi:cx="12.5"
       sodipodi:cy="11.5"
       sodipodi:rx="1.5"
       sodipodi:ry="0.5"
       d="m 14,11.5 a 1.5,0.5 0 1 1 -3,0 1.5,0.5 0 1 1 3,0 z"
       transform="matrix(0.970962,0,0,2.2950742,-0.13339428,1013.6001)" />
    <path
       style="fill:#000000;fill-opacity:0.48858451;stroke:none"
       d="m 2.9866038,1039.7328 9.0134172,2.9935 9.013417,-2.9935 0,1.4967 -9.013417,2.9935 -9.0134172,-2.9935 z"
       id="path3784"
       inkscape:connector-curvature="0" />
  </g>
</svg>
