<?xml version="1.0" encoding="UTF-8" standalone="no"?>
<!-- Created with Inkscape (http://www.inkscape.org/) -->

<svg
   xmlns:dc="http://purl.org/dc/elements/1.1/"
   xmlns:cc="http://creativecommons.org/ns#"
   xmlns:rdf="http://www.w3.org/1999/02/22-rdf-syntax-ns#"
   xmlns:svg="http://www.w3.org/2000/svg"
   xmlns="http://www.w3.org/2000/svg"
   xmlns:sodipodi="http://sodipodi.sourceforge.net/DTD/sodipodi-0.dtd"
   xmlns:inkscape="http://www.inkscape.org/namespaces/inkscape"
   width="24"
   height="24"
   id="svg2"
   version="1.1"
   inkscape:version="0.48.4 r9939"
   sodipodi:docname="ic_category_party.svg">
  <defs
     id="defs4" />
  <sodipodi:namedview
     id="base"
     pagecolor="#ffffff"
     bordercolor="#666666"
     borderopacity="1.0"
     inkscape:pageopacity="0.0"
     inkscape:pageshadow="2"
     inkscape:zoom="15.839192"
     inkscape:cx="7.4419407"
     inkscape:cy="8.0183269"
     inkscape:document-units="px"
     inkscape:current-layer="layer2"
     showgrid="true"
     inkscape:window-width="1280"
     inkscape:window-height="1000"
     inkscape:window-x="1680"
     inkscape:window-y="24"
     inkscape:window-maximized="1"
     inkscape:snap-global="false">
    <inkscape:grid
       type="xygrid"
       id="grid2985"
       empspacing="5"
       visible="true"
       enabled="true"
       snapvisiblegridlinesonly="true" />
  </sodipodi:namedview>
  <metadata
     id="metadata7">
    <rdf:RDF>
      <cc:Work
         rdf:about="">
        <dc:format>image/svg+xml</dc:format>
        <dc:type
           rdf:resource="http://purl.org/dc/dcmitype/StillImage" />
        <dc:title />
      </cc:Work>
    </rdf:RDF>
  </metadata>
  <g
     inkscape:label="Layer 1"
     inkscape:groupmode="layer"
     id="layer1"
     transform="translate(0,-1028.3622)" />
  <g
     inkscape:groupmode="layer"
     id="layer2"
     inkscape:label="Layer">
    <path
       style="fill:#313df2;fill-opacity:1;stroke:#89d7ff;stroke-width:1.19738448;stroke-linecap:round;stroke-linejoin:miter;stroke-miterlimit:4;stroke-opacity:1;stroke-dasharray:none"
       d="m 9.9388956,9.958538 c 1.4381404,0 1.4381404,0 1.4381404,0 l 0,0"
       id="path3987"
       inkscape:connector-curvature="0" />
    <path
       style="fill:#16006a;fill-opacity:1;stroke:none"
       d="m 9.7446326,13.774497 1.8266664,0 0,7.569502 -1.8266664,0 z"
       id="path3780"
       inkscape:connector-curvature="0" />
    <path
       style="fill:#16006a;fill-opacity:1;stroke:none"
       d="m 2.0291289,8.6960539 c -0.4789785,3.2215921 5.0637244,4.4076161 8.1858381,5.3352411 0.14155,0.04206 0.442999,0 0.442999,0 0,0 0.279568,0.03888 0.410896,0 3.131543,-0.927379 8.695347,-2.104348 8.21794,-5.3352411 -0.07296,-0.493793 -1.43814,-0.4173172 -1.43814,-0.4173172 l -7.190696,0 -7.1906978,0 c 0,0 -1.3647331,-0.076411 -1.4381393,0.4173172 z"
       id="path3782"
       inkscape:connector-curvature="0"
       sodipodi:nodetypes="ascsaccca" />
    <path
       style="fill:#16006a;fill-opacity:1;stroke:none"
       d="m 11.992082,19.626142 c 0.79789,0.103543 4.002346,1.794367 4.002346,1.794367 l -10.6729256,0 c 0,0 3.2041708,-1.693409 4.0023472,-1.794367 2.2119824,-0.28015 0.651041,-0.265625 2.6682324,0 z"
       id="path3784"
       inkscape:connector-curvature="0"
       sodipodi:nodetypes="sccss" />
    <g
       id="g3858"
       transform="matrix(1.1420199,0.58005106,-0.58005106,1.1420199,1.5429181,-11.025921)">
      <path
         inkscape:connector-curvature="0"
         id="path3773"
         d="m 15.538816,3.5128529 1.271805,-0.00289 0.0171,8.2202041 -1.271804,0.0026 z"
         style="fill:#6a5613;fill-opacity:1;stroke:none" />
      <path
         sodipodi:nodetypes="ccccc"
         inkscape:connector-curvature="0"
         id="path3775"
         d="m 17.435906,3.8774522 -2.427662,0.00588 -3.468701,1.9785579 9.275186,-0.050932 z"
         style="fill:#bd9730;fill-opacity:1;stroke:none" />
    </g>
    <path
       sodipodi:type="arc"
       style="fill:#005400;fill-opacity:1;fill-rule:nonzero;stroke:none"
       id="path3819"
       sodipodi:cx="32.182827"
       sodipodi:cy="0.22984809"
       sodipodi:rx="1.9098196"
       sodipodi:ry="1.4836615"
       d="m 34.092647,0.22984809 a 1.9098196,1.4836615 0 1 1 -3.81964,0 1.9098196,1.4836615 0 1 1 3.81964,0 z"
       transform="matrix(1.3621899,0.0909808,-0.04450466,1.7328974,-37.075767,5.3168438)" />
    <path
       sodipodi:nodetypes="ascsaccca"
       inkscape:connector-curvature="0"
       id="path3786"
       d="m 3.5960747,8.6228958 c -0.3919975,2.5738002 4.1441665,3.5213912 6.6993133,4.2624742 0.115842,0.03366 0.362552,0 0.362552,0 0,0 0.2288,0.03096 0.336279,0 2.562863,-0.740815 7.116298,-1.68127 6.725585,-4.2624742 -0.05971,-0.3944366 -1.176978,-0.333319 -1.176978,-0.333319 l -5.884886,0 -5.8848881,0 c 0,0 -1.1169015,-0.06058 -1.1769772,0.333319 z"
       style="fill:#e22c7b;fill-opacity:0.74885846;stroke:none" />
  </g>
</svg>
