<?xml version="1.0" encoding="UTF-8" standalone="no"?>
<!-- Created with Inkscape (http://www.inkscape.org/) -->

<svg
   xmlns:dc="http://purl.org/dc/elements/1.1/"
   xmlns:cc="http://creativecommons.org/ns#"
   xmlns:rdf="http://www.w3.org/1999/02/22-rdf-syntax-ns#"
   xmlns:svg="http://www.w3.org/2000/svg"
   xmlns="http://www.w3.org/2000/svg"
   xmlns:sodipodi="http://sodipodi.sourceforge.net/DTD/sodipodi-0.dtd"
   xmlns:inkscape="http://www.inkscape.org/namespaces/inkscape"
   width="24"
   height="24"
   id="svg2"
   version="1.1"
   inkscape:version="0.48.4 r9939"
   sodipodi:docname="ic_category_default.svg">
  <defs
     id="defs4" />
  <sodipodi:namedview
     id="base"
     pagecolor="#ffffff"
     bordercolor="#666666"
     borderopacity="1.0"
     inkscape:pageopacity="0.0"
     inkscape:pageshadow="2"
     inkscape:zoom="22.4"
     inkscape:cx="15.971853"
     inkscape:cy="13.614492"
     inkscape:document-units="px"
     inkscape:current-layer="layer1"
     showgrid="true"
     inkscape:window-width="1680"
     inkscape:window-height="1026"
     inkscape:window-x="0"
     inkscape:window-y="24"
     inkscape:window-maximized="1"
     showguides="true"
     inkscape:guide-bbox="true">
    <inkscape:grid
       type="xygrid"
       id="grid2985"
       empspacing="5"
       visible="true"
       enabled="true"
       snapvisiblegridlinesonly="true" />
  </sodipodi:namedview>
  <metadata
     id="metadata7">
    <rdf:RDF>
      <cc:Work
         rdf:about="">
        <dc:format>image/svg+xml</dc:format>
        <dc:type
           rdf:resource="http://purl.org/dc/dcmitype/StillImage" />
        <dc:title></dc:title>
      </cc:Work>
    </rdf:RDF>
  </metadata>
  <g
     inkscape:label="Layer 1"
     inkscape:groupmode="layer"
     id="layer1"
     transform="translate(0,-1028.3622)">
    <path
       sodipodi:type="arc"
       style="fill:#89d7ff;fill-opacity:1;fill-rule:nonzero;stroke:#313df2;stroke-width:0;stroke-linecap:round;stroke-linejoin:round;stroke-miterlimit:4;stroke-opacity:1;stroke-dasharray:none"
       id="path2987"
       sodipodi:cx="18.5"
       sodipodi:cy="17.5"
       sodipodi:rx="6.5"
       sodipodi:ry="6.5"
       d="M 25,17.5 C 25,21.089851 22.089851,24 18.5,24 14.910149,24 12,21.089851 12,17.5 12,13.910149 14.910149,11 18.5,11 c 3.589851,0 6.5,2.910149 6.5,6.5 z"
       transform="matrix(1.5356816,0,0,1.5356816,-16.36898,1013.4665)" />
    <path
       style="fill:#313df2;fill-opacity:1;fill-rule:nonzero;stroke:#89d7ff;stroke-width:0.4758459;stroke-linecap:round;stroke-linejoin:round;stroke-miterlimit:4;stroke-opacity:1;stroke-dasharray:none"
       d="m 8.0121583,1032.104 c -0.131391,0.062 -0.2134033,0.2313 -0.2134033,0.4028 l 0,15.6676 c 0,0.2285 0.153001,0.4027 0.3556719,0.4027 l 7.7536461,0 c 0.202672,0 0.355673,-0.1742 0.355673,-0.4027 l 0,-15.6676 c 0,-0.2286 -0.153001,-0.4028 -0.355673,-0.4028 l -7.7536461,0 c -0.050669,0 -0.098471,-0.02 -0.1422686,0 z m 1.5293884,1.208 4.9794073,0 c 0.202671,0 0.355671,0.1742 0.355671,0.4026 l 0,10.9089 c 0,0.2286 -0.153,0.4026 -0.355671,0.4026 l -4.9794073,0 c -0.2026711,0 -0.3556717,-0.174 -0.3556717,-0.4026 l 0,-10.9089 c 0,-0.2284 0.1530006,-0.4026 0.3556717,-0.4026 z"
       id="rect4842"
       inkscape:connector-curvature="0" />
    <path
       style="fill:none;stroke:#89d7ff;stroke-width:0.68442094px;stroke-linecap:round;stroke-linejoin:round;stroke-opacity:1"
       d="m 11.324153,1046.8964 c 1.414194,0 1.414194,0 1.414194,0"
       id="path4847"
       inkscape:connector-curvature="0" />
  </g>
</svg>
