<?xml version="1.0" encoding="UTF-8" standalone="no"?>
<!-- Created with Inkscape (http://www.inkscape.org/) -->

<svg
   xmlns:dc="http://purl.org/dc/elements/1.1/"
   xmlns:cc="http://creativecommons.org/ns#"
   xmlns:rdf="http://www.w3.org/1999/02/22-rdf-syntax-ns#"
   xmlns:svg="http://www.w3.org/2000/svg"
   xmlns="http://www.w3.org/2000/svg"
   xmlns:sodipodi="http://sodipodi.sourceforge.net/DTD/sodipodi-0.dtd"
   xmlns:inkscape="http://www.inkscape.org/namespaces/inkscape"
   width="24"
   height="24"
   id="svg2"
   version="1.1"
   inkscape:version="0.48.4 r9939"
   sodipodi:docname="ic_category_party.svg">
  <defs
     id="defs4" />
  <sodipodi:namedview
     id="base"
     pagecolor="#ffffff"
     bordercolor="#666666"
     borderopacity="1.0"
     inkscape:pageopacity="0.0"
     inkscape:pageshadow="2"
     inkscape:zoom="7.919596"
     inkscape:cx="-7.4416298"
     inkscape:cy="5.1429465"
     inkscape:document-units="px"
     inkscape:current-layer="layer2"
     showgrid="true"
     inkscape:window-width="1680"
     inkscape:window-height="1026"
     inkscape:window-x="0"
     inkscape:window-y="24"
     inkscape:window-maximized="1"
     inkscape:snap-global="false">
    <inkscape:grid
       type="xygrid"
       id="grid2985"
       empspacing="5"
       visible="true"
       enabled="true"
       snapvisiblegridlinesonly="true" />
  </sodipodi:namedview>
  <metadata
     id="metadata7">
    <rdf:RDF>
      <cc:Work
         rdf:about="">
        <dc:format>image/svg+xml</dc:format>
        <dc:type
           rdf:resource="http://purl.org/dc/dcmitype/StillImage" />
        <dc:title />
      </cc:Work>
    </rdf:RDF>
  </metadata>
  <g
     inkscape:label="Layer 1"
     inkscape:groupmode="layer"
     id="layer1"
     transform="translate(0,-1028.3622)" />
  <g
     inkscape:groupmode="layer"
     id="layer2"
     inkscape:label="Layer">
    <path
       style="fill:#313df2;fill-opacity:1;stroke:#89d7ff;stroke-width:1.07719815;stroke-linecap:round;stroke-linejoin:miter;stroke-miterlimit:4;stroke-opacity:1;stroke-dasharray:none"
       d="m 10.145777,10.163448 c 1.293788,0 1.293788,0 1.293788,0 l 0,0"
       id="path3987"
       inkscape:connector-curvature="0" />
    <path
       style="fill:#790cd6;fill-opacity:1;stroke:none"
       d="m 9.9710126,13.596384 1.6433164,0 0,6.809721 -1.6433164,0 z"
       id="path3780"
       inkscape:connector-curvature="0" />
    <path
       style="fill:#790cd6;fill-opacity:1;stroke:none"
       d="m 3.0299455,9.0276845 c -0.4309015,2.8982285 4.5554579,3.9652065 7.3641925,4.7997215 0.127342,0.03784 0.398533,0 0.398533,0 0,0 0.251507,0.03498 0.369653,0 2.817217,-0.834294 7.82256,-1.893126 7.393072,-4.7997215 -0.06564,-0.444229 -1.293788,-0.3754294 -1.293788,-0.3754294 l -6.468937,0 -6.468938,0 c 0,0 -1.2277494,-0.068741 -1.2937875,0.3754294 z"
       id="path3782"
       inkscape:connector-curvature="0"
       sodipodi:nodetypes="ascsaccca" />
    <path
       style="fill:#790cd6;fill-opacity:1;stroke:none"
       d="m 11.992876,18.860676 c 0.717803,0.09315 3.600615,1.614259 3.600615,1.614259 l -9.6016408,0 c 0,0 2.8825552,-1.523435 3.600615,-1.614259 1.9899568,-0.25203 0.5856938,-0.238963 2.4004108,0 z"
       id="path3784"
       inkscape:connector-curvature="0"
       sodipodi:nodetypes="sccss" />
    <g
       id="g3858"
       transform="matrix(0.89158597,0.45285146,-0.45285146,0.89158597,5.0696401,-6.6437204)">
      <path
         inkscape:connector-curvature="0"
         id="path3773"
         d="m 15.538816,3.5128529 1.271805,-0.00289 0.0171,8.2202041 -1.271804,0.0026 z"
         style="fill:#6a5613;fill-opacity:1;stroke:none" />
      <path
         sodipodi:nodetypes="ccccc"
         inkscape:connector-curvature="0"
         id="path3775"
         d="m 17.435906,3.8774522 -2.427662,0.00588 -3.468701,1.9785579 9.275186,-0.050932 z"
         style="fill:#bd9730;fill-opacity:1;stroke:none" />
    </g>
    <path
       sodipodi:type="arc"
       style="fill:#005400;fill-opacity:1;fill-rule:nonzero;stroke:none"
       id="path3819"
       sodipodi:cx="32.182827"
       sodipodi:cy="0.22984809"
       sodipodi:rx="1.9098196"
       sodipodi:ry="1.4836615"
       d="m 34.092647,0.22984809 a 1.9098196,1.4836615 0 1 1 -3.81964,0 1.9098196,1.4836615 0 1 1 3.81964,0 z"
       transform="matrix(1.0993279,0.0455302,-0.03591659,0.86720671,-28.091451,7.3154892)" />
    <path
       sodipodi:nodetypes="ascsaccca"
       inkscape:connector-curvature="0"
       id="path3786"
       d="m 4.4396106,8.9618696 c -0.3526511,2.3154574 3.7281998,3.1679354 6.0268754,3.8346324 0.104215,0.03028 0.326162,0 0.326162,0 0,0 0.205834,0.02785 0.302525,0 2.305618,-0.666456 6.402006,-1.512514 6.050511,-3.8346324 -0.05372,-0.3548454 -1.05884,-0.2998625 -1.05884,-0.2998625 l -5.294196,0 -5.2941981,0 c 0,0 -1.0047936,-0.054499 -1.0588393,0.2998625 z"
       style="fill:#e22c7b;fill-opacity:0.74885846;stroke:none" />
  </g>
</svg>
