<?xml version="1.0" encoding="UTF-8" standalone="no"?>
<!-- Created with Inkscape (http://www.inkscape.org/) -->

<svg
   xmlns:dc="http://purl.org/dc/elements/1.1/"
   xmlns:cc="http://creativecommons.org/ns#"
   xmlns:rdf="http://www.w3.org/1999/02/22-rdf-syntax-ns#"
   xmlns:svg="http://www.w3.org/2000/svg"
   xmlns="http://www.w3.org/2000/svg"
   xmlns:sodipodi="http://sodipodi.sourceforge.net/DTD/sodipodi-0.dtd"
   xmlns:inkscape="http://www.inkscape.org/namespaces/inkscape"
   width="24"
   height="24"
   id="svg2"
   version="1.1"
   inkscape:version="0.48.4 r9939"
   sodipodi:docname="ic_category_template.svg">
  <defs
     id="defs4" />
  <sodipodi:namedview
     id="base"
     pagecolor="#ffffff"
     bordercolor="#666666"
     borderopacity="1.0"
     inkscape:pageopacity="0.0"
     inkscape:pageshadow="2"
     inkscape:zoom="22.4"
     inkscape:cx="11.23423"
     inkscape:cy="12.668192"
     inkscape:document-units="px"
     inkscape:current-layer="layer1"
     showgrid="true"
     inkscape:window-width="1280"
     inkscape:window-height="1000"
     inkscape:window-x="1680"
     inkscape:window-y="24"
     inkscape:window-maximized="1">
    <inkscape:grid
       type="xygrid"
       id="grid2985"
       empspacing="5"
       visible="true"
       enabled="true"
       snapvisiblegridlinesonly="true" />
  </sodipodi:namedview>
  <metadata
     id="metadata7">
    <rdf:RDF>
      <cc:Work
         rdf:about="">
        <dc:format>image/svg+xml</dc:format>
        <dc:type
           rdf:resource="http://purl.org/dc/dcmitype/StillImage" />
        <dc:title></dc:title>
      </cc:Work>
    </rdf:RDF>
  </metadata>
  <g
     inkscape:label="Layer 1"
     inkscape:groupmode="layer"
     id="layer1"
     transform="translate(0,-1028.3622)">
    <path
       sodipodi:type="arc"
       style="fill:#89d7ff;fill-opacity:1;fill-rule:nonzero;stroke:#313df2;stroke-width:0;stroke-linecap:round;stroke-linejoin:round;stroke-miterlimit:4;stroke-opacity:1;stroke-dasharray:none"
       id="path2987"
       sodipodi:cx="18.5"
       sodipodi:cy="17.5"
       sodipodi:rx="6.5"
       sodipodi:ry="6.5"
       d="M 25,17.5 C 25,21.089851 22.089851,24 18.5,24 14.910149,24 12,21.089851 12,17.5 12,13.910149 14.910149,11 18.5,11 c 3.589851,0 6.5,2.910149 6.5,6.5 z"
       transform="matrix(1.5356816,0,0,1.5356816,-16.36898,1013.4665)" />
    <path
       style="fill:#313df2;fill-opacity:1;stroke:#89d7ff;stroke-width:0.83259279;stroke-linecap:round;stroke-linejoin:miter;stroke-miterlimit:4;stroke-opacity:1;stroke-dasharray:none"
       d="m 11.5,1038.5302 c 1,0 1,0 1,0 l 0,0"
       id="path3987"
       inkscape:connector-curvature="0" />
    <path
       style="fill:none;stroke:#89d7ff;stroke-width:0.35561121000000001px;stroke-linecap:round;stroke-linejoin:miter;stroke-opacity:1"
       d="m 6.5100999,1043.9203 11.9798001,0"
       id="path4033"
       inkscape:connector-curvature="0" />
    <g
       id="g4442"
       transform="matrix(0.80833843,0,0,0.82854681,-18.229897,174.62572)">
      <g
         transform="matrix(0.98349424,0,0,0.99174712,0.61896602,8.6231226)"
         id="g4438">
        <path
           sodipodi:type="arc"
           style="fill:#313df2;fill-opacity:1;fill-rule:nonzero;stroke:#3128f2;stroke-width:0.30000001;stroke-linecap:round;stroke-linejoin:round;stroke-miterlimit:4;stroke-opacity:1;stroke-dasharray:none"
           id="path3860"
           sodipodi:cx="37.5"
           sodipodi:cy="16.5"
           sodipodi:rx="7.5"
           sodipodi:ry="7.5"
           d="M 45,16.5 C 45,20.642136 41.642136,24 37.5,24 33.357864,24 30,20.642136 30,16.5 30,12.357864 33.357864,9 37.5,9 41.642136,9 45,12.357864 45,16.5 z"
           transform="translate(0,1028.3622)" />
        <path
           sodipodi:type="arc"
           style="fill:#313df2;fill-opacity:1;fill-rule:nonzero;stroke:#3128f2;stroke-width:0.30000001;stroke-linecap:round;stroke-linejoin:round;stroke-miterlimit:4;stroke-opacity:1;stroke-dasharray:none"
           id="path3862"
           sodipodi:cx="37.5"
           sodipodi:cy="16.5"
           sodipodi:rx="2.5"
           sodipodi:ry="2.5"
           d="M 40,16.5 C 40,17.880712 38.880712,19 37.5,19 36.119288,19 35,17.880712 35,16.5 35,15.119288 36.119288,14 37.5,14 c 1.380712,0 2.5,1.119288 2.5,2.5 z"
           transform="matrix(1.9057334,0,0,2.0485906,-33.965003,1011.0605)" />
      </g>
      <g
         transform="translate(-1.0714286,0)"
         id="g4407">
        <rect
           style="fill:#313df2;fill-opacity:1;fill-rule:nonzero;stroke:#3128f2;stroke-width:0.42490828;stroke-linecap:round;stroke-linejoin:round;stroke-miterlimit:4;stroke-opacity:1;stroke-dasharray:none"
           id="rect4376"
           width="1.5556344"
           height="2.7854421"
           x="46.291252"
           y="1040.1992"
           rx="0.094451293"
           ry="0.35632256" />
        <path
           style="fill:none;stroke:#3128f2;stroke-width:0.34341946;stroke-linecap:round;stroke-linejoin:miter;stroke-miterlimit:4;stroke-opacity:1;stroke-dasharray:none"
           d="m 46.27798,1040.2018 0,-2.7076"
           id="path4378"
           inkscape:connector-curvature="0" />
        <path
           style="fill:none;stroke:#3128f2;stroke-width:0.34341946;stroke-linecap:round;stroke-linejoin:miter;stroke-miterlimit:4;stroke-opacity:1;stroke-dasharray:none"
           d="m 47.063246,1040.2018 0,-2.7076"
           id="path4380"
           inkscape:connector-curvature="0" />
        <path
           style="fill:none;stroke:#3128f2;stroke-width:0.34341946;stroke-linecap:round;stroke-linejoin:miter;stroke-miterlimit:4;stroke-opacity:1;stroke-dasharray:none"
           d="m 47.848513,1040.2018 0,-2.7076"
           id="path4382"
           inkscape:connector-curvature="0" />
        <path
           inkscape:connector-curvature="0"
           id="path4384"
           d="m 47.063246,1052.0295 0,-8.7815"
           style="fill:none;stroke:#3128f2;stroke-width:0.62490839;stroke-linecap:round;stroke-linejoin:miter;stroke-miterlimit:4;stroke-opacity:1;stroke-dasharray:none" />
      </g>
      <g
         transform="translate(-22.162663,0)"
         id="g4403">
        <path
           style="fill:none;stroke:#3128f2;stroke-width:0.62490839;stroke-linecap:round;stroke-linejoin:miter;stroke-miterlimit:4;stroke-opacity:1;stroke-dasharray:none"
           d="m 51.063246,1052.0295 0,-8.7815"
           id="path4398"
           inkscape:connector-curvature="0" />
        <path
           style="fill:#313df2;fill-opacity:1;fill-rule:nonzero;stroke:#3128f2;stroke-width:0.52175158;stroke-linecap:round;stroke-linejoin:round;stroke-miterlimit:4;stroke-opacity:1"
           d="m 50.69136,1037.582 0.268307,0.3111 0,0 c 0.530247,1.2639 1.096319,3.1321 0.753299,4.4346 -0.08618,0.3272 -0.03719,0.6086 -0.08338,0.6086 l -1.206535,0 c -0.0462,0 -0.08338,-0.2715 -0.08338,-0.6086 l 0,-3.5403 c 0,-0.3372 0.351686,-1.2054 0.351686,-1.2054 z"
           id="rect4400"
           inkscape:connector-curvature="0"
           sodipodi:nodetypes="scccsssss" />
      </g>
    </g>
  </g>
</svg>
