<?xml version="1.0" encoding="UTF-8" standalone="no"?>
<!-- Created with Inkscape (http://www.inkscape.org/) -->

<svg
   xmlns:dc="http://purl.org/dc/elements/1.1/"
   xmlns:cc="http://creativecommons.org/ns#"
   xmlns:rdf="http://www.w3.org/1999/02/22-rdf-syntax-ns#"
   xmlns:svg="http://www.w3.org/2000/svg"
   xmlns="http://www.w3.org/2000/svg"
   xmlns:sodipodi="http://sodipodi.sourceforge.net/DTD/sodipodi-0.dtd"
   xmlns:inkscape="http://www.inkscape.org/namespaces/inkscape"
   width="24"
   height="24"
   id="svg2"
   version="1.1"
   inkscape:version="0.48.4 r9939"
   sodipodi:docname="ic_category_bike.svg">
  <defs
     id="defs4" />
  <sodipodi:namedview
     id="base"
     pagecolor="#ffffff"
     bordercolor="#666666"
     borderopacity="1.0"
     inkscape:pageopacity="0.0"
     inkscape:pageshadow="2"
     inkscape:zoom="15.839192"
     inkscape:cx="4.4298837"
     inkscape:cy="15.660482"
     inkscape:document-units="px"
     inkscape:current-layer="layer2"
     showgrid="true"
     inkscape:window-width="1680"
     inkscape:window-height="1026"
     inkscape:window-x="0"
     inkscape:window-y="24"
     inkscape:window-maximized="1">
    <inkscape:grid
       type="xygrid"
       id="grid2985"
       empspacing="5"
       visible="true"
       enabled="true"
       snapvisiblegridlinesonly="true" />
  </sodipodi:namedview>
  <metadata
     id="metadata7">
    <rdf:RDF>
      <cc:Work
         rdf:about="">
        <dc:format>image/svg+xml</dc:format>
        <dc:type
           rdf:resource="http://purl.org/dc/dcmitype/StillImage" />
        <dc:title></dc:title>
      </cc:Work>
    </rdf:RDF>
  </metadata>
  <g
     inkscape:label="Layer 1"
     inkscape:groupmode="layer"
     id="layer1"
     transform="translate(0,-1028.3622)" />
  <g
     inkscape:groupmode="layer"
     id="layer2"
     inkscape:label="Layer">
    <path
       style="fill:#aaaaaa;fill-opacity:1;stroke:none"
       d="m 6.732374,14.425864 6.67673,2.534608 -0.565824,1.387151 -6.6767294,-2.534607 z"
       id="path3840"
       inkscape:connector-curvature="0" />
    <path
       style="fill:#212121;fill-opacity:1;stroke:none"
       d="M 7.7869982,11.861991 4.9983395,10.803366 2.3385306,17.324057 5.1271894,18.382681 z"
       id="path3842"
       inkscape:connector-curvature="0" />
    <path
       style="fill:#535252;fill-opacity:1;stroke:none"
       d="M 4.4073167,12.252296 3.4777638,11.899421 2,15.522254 2.9295529,15.875127 z"
       id="path3844"
       inkscape:connector-curvature="0" />
    <path
       style="fill:#212121;fill-opacity:1;stroke:none"
       d="M 14.416757,14.420684 17.205416,15.479308 14.545606,22 l -2.788659,-1.058625 2.65981,-6.520691"
       id="path3846"
       inkscape:connector-curvature="0" />
    <path
       style="fill:#535252;fill-opacity:1;stroke:none"
       d="m 16.619761,16.888361 0.929552,0.352874 -1.477764,3.622832 -0.929553,-0.352874 z"
       id="path3848"
       inkscape:connector-curvature="0" />
    <path
       inkscape:connector-curvature="0"
       id="path3860"
       d="m 6.732374,14.425864 6.67673,2.534608 -0.565824,1.387151 -6.6767294,-2.534607 z"
       style="fill:#aaaaaa;fill-opacity:1;stroke:none" />
    <path
       inkscape:connector-curvature="0"
       id="path3862"
       d="M 7.7869982,11.861991 4.9983395,10.803366 2.3385306,17.324057 5.1271894,18.382681 z"
       style="fill:#212121;fill-opacity:1;stroke:none" />
    <path
       inkscape:connector-curvature="0"
       id="path3864"
       d="M 4.4073167,12.252296 3.4777638,11.899421 2,15.522254 2.9295529,15.875127 z"
       style="fill:#535252;fill-opacity:1;stroke:none" />
    <path
       inkscape:connector-curvature="0"
       id="path3866"
       d="M 14.416757,14.420684 17.205416,15.479308 14.545606,22 l -2.788659,-1.058625 2.65981,-6.520691"
       style="fill:#212121;fill-opacity:1;stroke:none" />
    <path
       inkscape:connector-curvature="0"
       id="path3868"
       d="m 16.619761,16.888361 0.929552,0.352874 -1.477764,3.622832 -0.929553,-0.352874 z"
       style="fill:#535252;fill-opacity:1;stroke:none" />
    <path
       inkscape:connector-curvature="0"
       id="path3870"
       d="m 10.526843,6.7418257 7.010389,-1.4744726 0.32916,1.4564729 -7.010389,1.4744724 z"
       style="fill:#aaaaaa;fill-opacity:1;stroke:none" />
    <path
       inkscape:connector-curvature="0"
       id="path3872"
       d="M 9.9257819,4.0451 6.9977643,4.6609404 8.545071,11.507493 11.473089,10.891652 z"
       style="fill:#212121;fill-opacity:1;stroke:none" />
    <path
       inkscape:connector-curvature="0"
       id="path3874"
       d="M 7.3415839,6.1822794 6.365578,6.3875595 7.2252464,10.191437 8.2012523,9.986156 z"
       style="fill:#535252;fill-opacity:1;stroke:none" />
    <path
       inkscape:connector-curvature="0"
       id="path3876"
       d="M 16.911011,2.6158405 19.839028,2 21.386335,8.8465536 18.458317,9.4623945 16.911011,2.6158405"
       style="fill:#212121;fill-opacity:1;stroke:none" />
    <path
       inkscape:connector-curvature="0"
       id="path3878"
       d="M 20.164326,3.4853133 21.140332,3.2800334 22,7.0839108 l -0.976005,0.20528 z"
       style="fill:#535252;fill-opacity:1;stroke:none" />
    <path
       style="fill:#aaaaaa;fill-opacity:1;stroke:none"
       d="m 10.526843,6.7418257 7.010389,-1.4744726 0.32916,1.4564729 -7.010389,1.4744724 z"
       id="path3880"
       inkscape:connector-curvature="0" />
    <path
       style="fill:#212121;fill-opacity:1;stroke:none"
       d="M 9.9257819,4.0451 6.9977643,4.6609404 8.545071,11.507493 11.473089,10.891652 z"
       id="path3882"
       inkscape:connector-curvature="0" />
    <path
       style="fill:#535252;fill-opacity:1;stroke:none"
       d="M 7.3415839,6.1822794 6.365578,6.3875595 7.2252464,10.191437 8.2012523,9.986156 z"
       id="path3884"
       inkscape:connector-curvature="0" />
    <path
       style="fill:#212121;fill-opacity:1;stroke:none"
       d="M 16.911011,2.6158405 19.839028,2 21.386335,8.8465536 18.458317,9.4623945 16.911011,2.6158405"
       id="path3886"
       inkscape:connector-curvature="0" />
    <path
       style="fill:#535252;fill-opacity:1;stroke:none"
       d="M 20.164326,3.4853133 21.140332,3.2800334 22,7.0839108 l -0.976005,0.20528 z"
       id="path3888"
       inkscape:connector-curvature="0" />
  </g>
</svg>
