<?xml version="1.0" encoding="UTF-8" standalone="no"?>
<!-- Created with Inkscape (http://www.inkscape.org/) -->

<svg
   xmlns:dc="http://purl.org/dc/elements/1.1/"
   xmlns:cc="http://creativecommons.org/ns#"
   xmlns:rdf="http://www.w3.org/1999/02/22-rdf-syntax-ns#"
   xmlns:svg="http://www.w3.org/2000/svg"
   xmlns="http://www.w3.org/2000/svg"
   xmlns:sodipodi="http://sodipodi.sourceforge.net/DTD/sodipodi-0.dtd"
   xmlns:inkscape="http://www.inkscape.org/namespaces/inkscape"
   width="24"
   height="24"
   id="svg2"
   version="1.1"
   inkscape:version="0.48.4 r9939"
   sodipodi:docname="ic_category_car.svg">
  <defs
     id="defs4" />
  <sodipodi:namedview
     id="base"
     pagecolor="#ffffff"
     bordercolor="#666666"
     borderopacity="1.0"
     inkscape:pageopacity="0.0"
     inkscape:pageshadow="2"
     inkscape:zoom="22.4"
     inkscape:cx="4.1957453"
     inkscape:cy="13.745881"
     inkscape:document-units="px"
     inkscape:current-layer="layer1"
     showgrid="true"
     inkscape:window-width="1680"
     inkscape:window-height="1026"
     inkscape:window-x="0"
     inkscape:window-y="24"
     inkscape:window-maximized="1">
    <inkscape:grid
       type="xygrid"
       id="grid2985"
       empspacing="5"
       visible="true"
       enabled="true"
       snapvisiblegridlinesonly="true" />
  </sodipodi:namedview>
  <metadata
     id="metadata7">
    <rdf:RDF>
      <cc:Work
         rdf:about="">
        <dc:format>image/svg+xml</dc:format>
        <dc:type
           rdf:resource="http://purl.org/dc/dcmitype/StillImage" />
        <dc:title />
      </cc:Work>
    </rdf:RDF>
  </metadata>
  <g
     inkscape:groupmode="layer"
     id="layer2"
     inkscape:label="Layer">
    <path
       style="fill:#843933;fill-opacity:1;stroke:#843933;stroke-width:1.28458691px;stroke-linecap:round;stroke-linejoin:round;stroke-opacity:1"
       d="m 4.6851924,10.339074 2.7749311,-3.5676862 5.5498615,0 4.162397,3.5676862"
       id="path4192"
       inkscape:connector-curvature="0" />
    <path
       style="fill:#89d7ff;fill-opacity:1;stroke:#89d7ff;stroke-width:0;stroke-linecap:butt;stroke-linejoin:miter;stroke-miterlimit:4;stroke-opacity:1;stroke-dasharray:none"
       d="m 6.3667675,9.4867344 1.7443468,-2.2931897 1.744347,0 0,2.2931897 z"
       id="path4200"
       inkscape:connector-curvature="0" />
    <path
       inkscape:connector-curvature="0"
       id="path4202"
       d="m 15.298756,9.4867344 -2.498362,-2.3296374 -1.778762,0 0,2.3296374 z"
       style="fill:#89d7ff;fill-opacity:1;stroke:#89d7ff;stroke-width:0;stroke-linecap:butt;stroke-linejoin:miter;stroke-miterlimit:4;stroke-opacity:1;stroke-dasharray:none"
       sodipodi:nodetypes="ccccc" />
  </g>
  <g
     inkscape:label="Layer 1"
     inkscape:groupmode="layer"
     id="layer1"
     transform="translate(0,-1028.3622)">
    <path
       style="fill:#31ad6a;fill-opacity:1;fill-rule:nonzero;stroke:none"
       d="m 3.8879137,1038.5704 c -0.4702009,0 -0.8391816,0.1901 -0.8391816,0.4419 l 0,4.1684 c 0,0.2517 0.3689807,0.4417 0.8391816,0.4417 l 0.7925599,0 c -0.07931,-0.1557 -0.093243,-0.3001 -0.093243,-0.4736 0,-0.8374 1.0019048,-1.5156 2.237817,-1.5156 1.2359123,0 2.2378168,0.6782 2.2378168,1.5156 0,0.175 -0.059838,0.3179 -0.1398635,0.4736 l 6.2006175,0 c -0.08946,-0.1638 -0.139863,-0.3202 -0.139863,-0.5052 0,-0.8368 1.001906,-1.5155 2.237815,-1.5155 1.235913,0 2.23782,0.6787 2.23782,1.5155 0,0.185 -0.0504,0.3414 -0.139865,0.5052 l 0.79256,0 c 0.470202,0 0.839182,-0.19 0.839182,-0.4417 l 0,-4.1684 c 0,-0.2518 -0.36898,-0.4419 -0.839182,-0.4419 l -16.2241725,0 z"
       id="rect4178"
       inkscape:connector-curvature="0" />
    <path
       sodipodi:type="arc"
       style="fill:#00003d;fill-opacity:1;fill-rule:nonzero;stroke:none"
       id="path4188"
       sodipodi:cx="2"
       sodipodi:cy="18"
       sodipodi:rx="1"
       sodipodi:ry="1"
       d="m 3,18 a 1,1 0 1 1 -2,0 1,1 0 1 1 2,0 z"
       transform="matrix(2.5401669,0,0,2.4941424,1.7609541,998.79865)" />
    <path
       transform="matrix(2.5750448,0,0,2.5863812,12.08737,997.14335)"
       d="m 3,18 a 1,1 0 1 1 -2,0 1,1 0 1 1 2,0 z"
       sodipodi:ry="1"
       sodipodi:rx="1"
       sodipodi:cy="18"
       sodipodi:cx="2"
       id="path4190"
       style="fill:#00003d;fill-opacity:1;fill-rule:nonzero;stroke:none"
       sodipodi:type="arc" />
    <path
       transform="matrix(1.2053469,0,0,1.1835075,4.4305944,1022.39)"
       d="m 3,18 a 1,1 0 1 1 -2,0 1,1 0 1 1 2,0 z"
       sodipodi:ry="1"
       sodipodi:rx="1"
       sodipodi:cy="18"
       sodipodi:cx="2"
       id="path3771"
       style="fill:#c7c93d;fill-opacity:1;fill-rule:nonzero;stroke:none"
       sodipodi:type="arc" />
    <path
       sodipodi:type="arc"
       style="fill:#c7c93d;fill-opacity:1;fill-rule:nonzero;stroke:none"
       id="path3773"
       sodipodi:cx="2"
       sodipodi:cy="18"
       sodipodi:rx="1"
       sodipodi:ry="1"
       d="m 3,18 a 1,1 0 1 1 -2,0 1,1 0 1 1 2,0 z"
       transform="matrix(1.2320386,0,0,1.2097156,14.773381,1021.9234)" />
  </g>
</svg>
