<?xml version="1.0" encoding="UTF-8" standalone="no"?>
<!-- Created with Inkscape (http://www.inkscape.org/) -->

<svg
   xmlns:dc="http://purl.org/dc/elements/1.1/"
   xmlns:cc="http://creativecommons.org/ns#"
   xmlns:rdf="http://www.w3.org/1999/02/22-rdf-syntax-ns#"
   xmlns:svg="http://www.w3.org/2000/svg"
   xmlns="http://www.w3.org/2000/svg"
   xmlns:sodipodi="http://sodipodi.sourceforge.net/DTD/sodipodi-0.dtd"
   xmlns:inkscape="http://www.inkscape.org/namespaces/inkscape"
   width="24"
   height="24"
   id="svg2"
   version="1.1"
   inkscape:version="0.48.4 r9939"
   sodipodi:docname="ic_category_car.svg">
  <defs
     id="defs4" />
  <sodipodi:namedview
     id="base"
     pagecolor="#ffffff"
     bordercolor="#666666"
     borderopacity="1.0"
     inkscape:pageopacity="0.0"
     inkscape:pageshadow="2"
     inkscape:zoom="31.678384"
     inkscape:cx="11.250062"
     inkscape:cy="11.101532"
     inkscape:document-units="px"
     inkscape:current-layer="layer1"
     showgrid="true"
     inkscape:window-width="1680"
     inkscape:window-height="1026"
     inkscape:window-x="0"
     inkscape:window-y="24"
     inkscape:window-maximized="1">
    <inkscape:grid
       type="xygrid"
       id="grid2985"
       empspacing="5"
       visible="true"
       enabled="true"
       snapvisiblegridlinesonly="true" />
  </sodipodi:namedview>
  <metadata
     id="metadata7">
    <rdf:RDF>
      <cc:Work
         rdf:about="">
        <dc:format>image/svg+xml</dc:format>
        <dc:type
           rdf:resource="http://purl.org/dc/dcmitype/StillImage" />
        <dc:title></dc:title>
      </cc:Work>
    </rdf:RDF>
  </metadata>
  <g
     inkscape:label="Layer 1"
     inkscape:groupmode="layer"
     id="layer1"
     transform="translate(0,-1028.3622)">
    <path
       sodipodi:type="arc"
       style="fill:#89d7ff;fill-opacity:1;fill-rule:nonzero;stroke:#313df2;stroke-width:0;stroke-linecap:round;stroke-linejoin:round;stroke-miterlimit:4;stroke-opacity:1;stroke-dasharray:none"
       id="path2987"
       sodipodi:cx="18.5"
       sodipodi:cy="17.5"
       sodipodi:rx="6.5"
       sodipodi:ry="6.5"
       d="m 25,17.5 a 6.5,6.5 0 1 1 -13,0 6.5,6.5 0 1 1 13,0 z"
       transform="matrix(1.5356816,0,0,1.5356816,-16.36898,1013.4665)" />
    <g
       id="g4244"
       transform="matrix(1.0140244,0,0,1.2426108,-0.21654466,-253.34173)">
      <path
         inkscape:connector-curvature="0"
         id="rect4178"
         d="m 4.924732,1039.772 c -0.4138283,0 -0.7385716,0.1323 -0.7385716,0.3076 l 0,2.9008 c 0,0.1753 0.3247433,0.3075 0.7385716,0.3075 l 0.6975395,0 c -0.069801,-0.1083 -0.082064,-0.2088 -0.082064,-0.3296 0,-0.5827 0.8817859,-1.0547 1.969524,-1.0547 1.087738,0 1.9695239,0.472 1.9695239,1.0547 0,0.1218 -0.052663,0.2212 -0.1230953,0.3296 l 5.4572229,0 c -0.07874,-0.114 -0.123095,-0.2228 -0.123095,-0.3515 0,-0.5824 0.881787,-1.0548 1.969523,-1.0548 1.087738,0 1.969525,0.4724 1.969525,1.0548 0,0.1287 -0.04436,0.2375 -0.123095,0.3515 l 0.697539,0 c 0.413829,0 0.738572,-0.1322 0.738572,-0.3075 l 0,-2.9008 c 0,-0.1753 -0.324743,-0.3076 -0.738572,-0.3076 l -14.2790486,0 z"
         style="fill:#313df2;fill-opacity:1;fill-rule:nonzero;stroke:#313df2;stroke-width:0;stroke-linecap:round;stroke-linejoin:round;stroke-miterlimit:4;stroke-opacity:1;stroke-dasharray:none" />
      <path
         transform="matrix(1.6192691,0,0,1.111909,4.2854867,1023.2156)"
         d="m 3,18 c 0,0.552285 -0.4477153,1 -1,1 -0.5522847,0 -1,-0.447715 -1,-1 0,-0.552285 0.4477153,-1 1,-1 0.5522847,0 1,0.447715 1,1 z"
         sodipodi:ry="1"
         sodipodi:rx="1"
         sodipodi:cy="18"
         sodipodi:cx="2"
         id="path4188"
         style="fill:#313df2;fill-opacity:1;fill-rule:nonzero;stroke:#313df2;stroke-width:0;stroke-linecap:round;stroke-linejoin:round;stroke-miterlimit:4;stroke-opacity:1;stroke-dasharray:none"
         sodipodi:type="arc" />
      <path
         sodipodi:type="arc"
         style="fill:#313df2;fill-opacity:1;fill-rule:nonzero;stroke:#313df2;stroke-width:0;stroke-linecap:round;stroke-linejoin:round;stroke-miterlimit:4;stroke-opacity:1;stroke-dasharray:none"
         id="path4190"
         sodipodi:cx="2"
         sodipodi:cy="18"
         sodipodi:rx="1"
         sodipodi:ry="1"
         d="m 3,18 c 0,0.552285 -0.4477153,1 -1,1 -0.5522847,0 -1,-0.447715 -1,-1 0,-0.552285 0.4477153,-1 1,-1 0.5522847,0 1,0.447715 1,1 z"
         transform="matrix(1.60594,0,0,1.1280498,13.461914,1022.9281)" />
      <path
         inkscape:connector-curvature="0"
         id="path4192"
         d="m 5.6386323,1039.9943 2.4506535,-1.7173 4.9013062,0 3.67598,1.7173"
         style="fill:#313df2;fill-opacity:1;stroke:#313df2;stroke-width:0.83753806px;stroke-linecap:round;stroke-linejoin:round;stroke-opacity:1" />
      <path
         inkscape:connector-curvature="0"
         id="path4200"
         d="m 7.0925683,1039.584 1.5405029,-1.1038 1.5405028,0 0,1.1038 z"
         style="fill:#89d7ff;fill-opacity:1;stroke:#89d7ff;stroke-width:0;stroke-linecap:butt;stroke-linejoin:miter;stroke-miterlimit:4;stroke-opacity:1;stroke-dasharray:none" />
      <path
         sodipodi:nodetypes="ccccc"
         style="fill:#89d7ff;fill-opacity:1;stroke:#89d7ff;stroke-width:0;stroke-linecap:butt;stroke-linejoin:miter;stroke-miterlimit:4;stroke-opacity:1;stroke-dasharray:none"
         d="m 14.980768,1039.584 -2.206404,-1.1213 -1.570897,0 0,1.1213 z"
         id="path4202"
         inkscape:connector-curvature="0" />
    </g>
  </g>
</svg>
