<?xml version="1.0" encoding="UTF-8" standalone="no"?>
<!-- Created with Inkscape (http://www.inkscape.org/) -->

<svg
   xmlns:dc="http://purl.org/dc/elements/1.1/"
   xmlns:cc="http://creativecommons.org/ns#"
   xmlns:rdf="http://www.w3.org/1999/02/22-rdf-syntax-ns#"
   xmlns:svg="http://www.w3.org/2000/svg"
   xmlns="http://www.w3.org/2000/svg"
   xmlns:sodipodi="http://sodipodi.sourceforge.net/DTD/sodipodi-0.dtd"
   xmlns:inkscape="http://www.inkscape.org/namespaces/inkscape"
   width="24"
   height="24"
   id="svg2"
   version="1.1"
   inkscape:version="0.48.4 r9939"
   sodipodi:docname="ic_category_sport.svg">
  <defs
     id="defs4" />
  <sodipodi:namedview
     id="base"
     pagecolor="#ffffff"
     bordercolor="#666666"
     borderopacity="1.0"
     inkscape:pageopacity="0.0"
     inkscape:pageshadow="2"
     inkscape:zoom="22.4"
     inkscape:cx="2.9945413"
     inkscape:cy="15.029427"
     inkscape:document-units="px"
     inkscape:current-layer="layer1"
     showgrid="true"
     inkscape:window-width="1680"
     inkscape:window-height="1026"
     inkscape:window-x="0"
     inkscape:window-y="24"
     inkscape:window-maximized="1">
    <inkscape:grid
       type="xygrid"
       id="grid2985"
       empspacing="5"
       visible="true"
       enabled="true"
       snapvisiblegridlinesonly="true" />
  </sodipodi:namedview>
  <metadata
     id="metadata7">
    <rdf:RDF>
      <cc:Work
         rdf:about="">
        <dc:format>image/svg+xml</dc:format>
        <dc:type
           rdf:resource="http://purl.org/dc/dcmitype/StillImage" />
        <dc:title></dc:title>
      </cc:Work>
    </rdf:RDF>
  </metadata>
  <g
     inkscape:label="Layer 1"
     inkscape:groupmode="layer"
     id="layer1"
     transform="translate(0,-1028.3622)">
    <path
       sodipodi:type="arc"
       style="fill:#89d7ff;fill-opacity:1;fill-rule:nonzero;stroke:#313df2;stroke-width:0;stroke-linecap:round;stroke-linejoin:round;stroke-miterlimit:4;stroke-opacity:1;stroke-dasharray:none"
       id="path2987"
       sodipodi:cx="18.5"
       sodipodi:cy="17.5"
       sodipodi:rx="6.5"
       sodipodi:ry="6.5"
       d="M 25,17.5 C 25,21.089851 22.089851,24 18.5,24 14.910149,24 12,21.089851 12,17.5 12,13.910149 14.910149,11 18.5,11 c 3.589851,0 6.5,2.910149 6.5,6.5 z"
       transform="matrix(1.5356816,0,0,1.5356816,-16.36898,1013.4665)" />
    <path
       style="fill:#313df2;fill-opacity:1;stroke:#89d7ff;stroke-width:0.83259279;stroke-linecap:round;stroke-linejoin:miter;stroke-miterlimit:4;stroke-opacity:1;stroke-dasharray:none"
       d="m 11.5,1038.5302 c 1,0 1,0 1,0 l 0,0"
       id="path3987"
       inkscape:connector-curvature="0" />
    <path
       style="fill:none;stroke:#89d7ff;stroke-width:0.35561121000000001px;stroke-linecap:round;stroke-linejoin:miter;stroke-opacity:1"
       d="m 6.5100999,1043.9203 11.9798001,0"
       id="path4033"
       inkscape:connector-curvature="0" />
    <g
       id="g3799">
      <g
         transform="matrix(1.6367284,0,0,1.7714134,25.925585,-795.41547)"
         id="g3782">
        <path
           style="fill:#315af2;fill-opacity:1;fill-rule:nonzero;stroke:#3128f2;stroke-width:0.74400002;stroke-linecap:round;stroke-linejoin:round;stroke-miterlimit:4;stroke-opacity:1;stroke-dasharray:none"
           d="m -11.6875,1033.3622 c -0.158285,-0.084 -0.3125,0.1486 -0.3125,0.3438 l -0.0625,-0.062 -0.71875,0.7187 -0.21875,4.9995 1,0 0.523959,-0.9491 0.523958,-0.3846 1.2219499,-0.5645 1.1862743,0 1.2397877,0 1.2397876,0.5645 0.514304,0.3849 0.5143039,0.9493 L -4,1039.3622 -4.21875,1034.3627 -4.9375,1033.644 -5,1033.706 c 0,-0.1952 -0.1344294,-0.3438 -0.3125,-0.3438 l -1.3627584,0.7147 -1.8247416,0.2853 -1.841108,-0.2853 z"
           id="rect2993"
           inkscape:connector-curvature="0"
           sodipodi:nodetypes="scccccccccccccccccscccs" />
        <path
           style="fill:none;stroke:#3128f2;stroke-width:0.62053573px;stroke-linecap:round;stroke-linejoin:miter;stroke-opacity:1"
           d="m -10.430803,1035.7483 -1.241072,0"
           id="path3002"
           inkscape:connector-curvature="0" />
        <path
           style="fill:none;stroke:#3128f2;stroke-width:0.62053573px;stroke-linecap:round;stroke-linejoin:miter;stroke-opacity:1"
           d="m -11.051339,1035.1278 0,1.241"
           id="path3004"
           inkscape:connector-curvature="0" />
        <path
           sodipodi:type="arc"
           style="fill:#3128f2;fill-opacity:1;fill-rule:nonzero;stroke:#3128f2;stroke-width:0;stroke-linecap:round;stroke-linejoin:round;stroke-miterlimit:4;stroke-opacity:1;stroke-dasharray:none"
           id="path3774"
           sodipodi:cx="-9.5"
           sodipodi:cy="2.5"
           sodipodi:rx="0.5"
           sodipodi:ry="0.5"
           d="M -9,2.5 C -9,2.7761424 -9.2238576,3 -9.5,3 -9.7761424,3 -10,2.7761424 -10,2.5 -10,2.2238576 -9.7761424,2 -9.5,2 -9.2238576,2 -9,2.2238576 -9,2.5 z"
           transform="translate(2.9910714,1033.3176)" />
        <path
           transform="translate(4.1517857,1032.6033)"
           d="M -9,2.5 C -9,2.7761424 -9.2238576,3 -9.5,3 -9.7761424,3 -10,2.7761424 -10,2.5 -10,2.2238576 -9.7761424,2 -9.5,2 -9.2238576,2 -9,2.2238576 -9,2.5 z"
           sodipodi:ry="0.5"
           sodipodi:rx="0.5"
           sodipodi:cy="2.5"
           sodipodi:cx="-9.5"
           id="path3776"
           style="fill:#3128f2;fill-opacity:1;fill-rule:nonzero;stroke:#3128f2;stroke-width:0;stroke-linecap:round;stroke-linejoin:round;stroke-miterlimit:4;stroke-opacity:1;stroke-dasharray:none"
           sodipodi:type="arc" />
        <path
           style="fill:none;stroke:#3128f2;stroke-width:0.46956775px;stroke-linecap:round;stroke-linejoin:miter;stroke-opacity:1"
           d="m -9.4840639,1036.2126 c 0.4531255,0 0.4531255,0 0.4531255,0"
           id="path3778"
           inkscape:connector-curvature="0" />
        <path
           inkscape:connector-curvature="0"
           id="path3780"
           d="m -8.1395095,1036.2126 c 0.4531255,0 0.4531255,0 0.4531255,0"
           style="fill:none;stroke:#3128f2;stroke-width:0.46956775px;stroke-linecap:round;stroke-linejoin:miter;stroke-opacity:1" />
      </g>
      <path
         inkscape:connector-curvature="0"
         id="path3797"
         d="m 11.921701,1036.4105 c -1.375572,-4.7889 2.844414,-3.8094 4.501562,-3.6266"
         style="fill:none;stroke:#3128f2;stroke-width:0.90347481px;stroke-linecap:round;stroke-linejoin:miter;stroke-opacity:1" />
    </g>
  </g>
</svg>
