<?xml version="1.0" encoding="UTF-8" standalone="no"?>
<!-- Created with Inkscape (http://www.inkscape.org/) -->

<svg
   xmlns:dc="http://purl.org/dc/elements/1.1/"
   xmlns:cc="http://creativecommons.org/ns#"
   xmlns:rdf="http://www.w3.org/1999/02/22-rdf-syntax-ns#"
   xmlns:svg="http://www.w3.org/2000/svg"
   xmlns="http://www.w3.org/2000/svg"
   xmlns:sodipodi="http://sodipodi.sourceforge.net/DTD/sodipodi-0.dtd"
   xmlns:inkscape="http://www.inkscape.org/namespaces/inkscape"
   width="24"
   height="24"
   id="svg2"
   version="1.1"
   inkscape:version="0.48.4 r9939"
   sodipodi:docname="ic_category_gaming.svg">
  <defs
     id="defs4" />
  <sodipodi:namedview
     id="base"
     pagecolor="#ffffff"
     bordercolor="#666666"
     borderopacity="1.0"
     inkscape:pageopacity="0.0"
     inkscape:pageshadow="2"
     inkscape:zoom="15.839192"
     inkscape:cx="10.32038"
     inkscape:cy="5.6067327"
     inkscape:document-units="px"
     inkscape:current-layer="layer2"
     showgrid="true"
     inkscape:window-width="1680"
     inkscape:window-height="1026"
     inkscape:window-x="0"
     inkscape:window-y="24"
     inkscape:window-maximized="1">
    <inkscape:grid
       type="xygrid"
       id="grid2985"
       empspacing="5"
       visible="true"
       enabled="true"
       snapvisiblegridlinesonly="true" />
  </sodipodi:namedview>
  <metadata
     id="metadata7">
    <rdf:RDF>
      <cc:Work
         rdf:about="">
        <dc:format>image/svg+xml</dc:format>
        <dc:type
           rdf:resource="http://purl.org/dc/dcmitype/StillImage" />
        <dc:title />
      </cc:Work>
    </rdf:RDF>
  </metadata>
  <g
     inkscape:groupmode="layer"
     id="layer2"
     inkscape:label="Layer">
    <path
       transform="translate(0,-1028.3622)"
       style="fill:none;stroke:#c58003;stroke-width:0.94684047000000005px;stroke-linecap:round;stroke-linejoin:miter;stroke-opacity:1"
       d="m 11.896473,1037.607 c -1.553119,-4.6584 3.211547,-3.7056 5.082585,-3.5278"
       id="path3797"
       inkscape:connector-curvature="0" />
  </g>
  <g
     inkscape:label="Layer 1"
     inkscape:groupmode="layer"
     id="layer1"
     transform="translate(0,-1028.3622)">
    <path
       style="fill:#313df2;fill-opacity:1;stroke:#89d7ff;stroke-width:0.87255621;stroke-linecap:round;stroke-linejoin:miter;stroke-miterlimit:4;stroke-opacity:1;stroke-dasharray:none"
       d="m 11.420343,1039.6689 c 1.129071,0 1.129071,0 1.129071,0 l 0,0"
       id="path3987"
       inkscape:connector-curvature="0" />
    <path
       style="fill:#1d9765;fill-opacity:1;fill-rule:nonzero;stroke:#083400;stroke-width:1.32764506;stroke-linecap:round;stroke-linejoin:round;stroke-miterlimit:4;stroke-opacity:1;stroke-dasharray:none"
       d="m 6.1095529,1036.3285 c -0.292508,-0.1447 -0.5774947,0.256 -0.5774947,0.5924 l -0.115499,-0.1068 -1.3282382,1.2384 -0.4042463,8.6148 1.8479835,0 0.9682676,-1.6354 0.9682656,-0.6628 2.2581432,-0.9726 2.1922164,0 2.291106,0 2.291108,0.9726 0.950425,0.6632 0.950425,1.6358 1.913911,-8e-4 -0.404246,-8.6148 -1.328238,-1.2384 -0.115499,0.1068 c 0,-0.3364 -0.248423,-0.5924 -0.577495,-0.5924 l -2.518355,1.2315 -3.372092,0.4917 -3.4023379,-0.4917 z"
       id="rect2993"
       inkscape:connector-curvature="0"
       sodipodi:nodetypes="scccccccccccccccccscccs" />
    <path
       style="fill:#080000;fill-opacity:1;stroke:#000000;stroke-width:1.10732687px;stroke-linecap:round;stroke-linejoin:miter;stroke-opacity:1"
       d="m 8.4319082,1040.44 -2.2934804,0"
       id="path3002"
       inkscape:connector-curvature="0" />
    <path
       style="fill:#080000;fill-opacity:1;stroke:#000000;stroke-width:1.10732687px;stroke-linecap:round;stroke-linejoin:miter;stroke-opacity:1"
       d="m 7.2851679,1039.3709 0,2.1384"
       id="path3004"
       inkscape:connector-curvature="0" />
    <path
       sodipodi:type="arc"
       style="fill:#d9d600;fill-opacity:1;fill-rule:nonzero;stroke:none"
       id="path3774"
       sodipodi:cx="-9.5"
       sodipodi:cy="2.5"
       sodipodi:rx="0.5"
       sodipodi:ry="0.5"
       d="m -9,2.5 a 0.5,0.5 0 1 1 -1,0 0.5,0.5 0 1 1 1,0 z"
       transform="matrix(1.8479834,0,0,1.7231377,33.235311,1036.2516)" />
    <path
       transform="matrix(1.8479834,0,0,1.7231377,35.380292,1035.0209)"
       d="m -9,2.5 a 0.5,0.5 0 1 1 -1,0 0.5,0.5 0 1 1 1,0 z"
       sodipodi:ry="0.5"
       sodipodi:rx="0.5"
       sodipodi:cy="2.5"
       sodipodi:cx="-9.5"
       id="path3776"
       style="fill:#0834d3;fill-opacity:1;fill-rule:nonzero;stroke:none"
       sodipodi:type="arc" />
    <path
       style="fill:#085000;fill-opacity:1;stroke:#843400;stroke-width:0.83792919px;stroke-linecap:round;stroke-linejoin:miter;stroke-opacity:1"
       d="m 10.181467,1041.2401 c 0.837369,0 0.837369,0 0.837369,0"
       id="path3778"
       inkscape:connector-curvature="0" />
    <path
       inkscape:connector-curvature="0"
       id="path3780"
       d="m 12.666182,1041.2401 c 0.837367,0 0.837367,0 0.837367,0"
       style="fill:#085000;fill-opacity:1;stroke:#843400;stroke-width:0.83792919px;stroke-linecap:round;stroke-linejoin:miter;stroke-opacity:1" />
  </g>
</svg>
