<?xml version="1.0" encoding="UTF-8" standalone="no"?>
<!-- Created with Inkscape (http://www.inkscape.org/) -->

<svg
   xmlns:dc="http://purl.org/dc/elements/1.1/"
   xmlns:cc="http://creativecommons.org/ns#"
   xmlns:rdf="http://www.w3.org/1999/02/22-rdf-syntax-ns#"
   xmlns:svg="http://www.w3.org/2000/svg"
   xmlns="http://www.w3.org/2000/svg"
   xmlns:sodipodi="http://sodipodi.sourceforge.net/DTD/sodipodi-0.dtd"
   xmlns:inkscape="http://www.inkscape.org/namespaces/inkscape"
   width="24"
   height="24"
   id="svg2"
   version="1.1"
   inkscape:version="0.48.4 r9939"
   sodipodi:docname="ic_category_food.svg">
  <defs
     id="defs4" />
  <sodipodi:namedview
     id="base"
     pagecolor="#ffffff"
     bordercolor="#666666"
     borderopacity="1.0"
     inkscape:pageopacity="0.0"
     inkscape:pageshadow="2"
     inkscape:zoom="16"
     inkscape:cx="3.779669"
     inkscape:cy="10.014843"
     inkscape:document-units="px"
     inkscape:current-layer="layer2"
     showgrid="true"
     inkscape:window-width="1280"
     inkscape:window-height="1000"
     inkscape:window-x="1680"
     inkscape:window-y="24"
     inkscape:window-maximized="1"
     inkscape:snap-global="true">
    <inkscape:grid
       type="xygrid"
       id="grid2985"
       empspacing="5"
       visible="true"
       enabled="true"
       snapvisiblegridlinesonly="true" />
  </sodipodi:namedview>
  <metadata
     id="metadata7">
    <rdf:RDF>
      <cc:Work
         rdf:about="">
        <dc:format>image/svg+xml</dc:format>
        <dc:type
           rdf:resource="http://purl.org/dc/dcmitype/StillImage" />
        <dc:title />
      </cc:Work>
    </rdf:RDF>
  </metadata>
  <g
     inkscape:label="Layer 1"
     inkscape:groupmode="layer"
     id="layer1"
     transform="translate(0,-1028.3622)" />
  <g
     inkscape:groupmode="layer"
     id="layer3"
     inkscape:label="Layer#1" />
  <g
     inkscape:groupmode="layer"
     id="layer2"
     inkscape:label="Layer">
    <path
       style="fill:#a10e07;fill-opacity:1;stroke:none"
       d="M 20.444865,3.4916322 C 20.32943,3.4192987 20.161185,3.3870883 20.00759,3.5550931 l -1.683235,1.8425282 c -0.540296,0.6608996 -1.187201,1.2565346 -1.792231,1.7958172 l -0.579829,-0.6938734 3.293358,-3.6881 c 0,0 0.293673,-0.7793918 -0.688516,-0.8240193 -0.982012,-0.044793 -3.476063,3.8050726 -3.476063,3.8050726 -0.232736,0.1946454 -1.244349,0.9964074 -1.683072,1.8423493 -0.492639,0.9500453 -0.146664,1.8155895 -0.01134,2.6695733 L 4.0200514,20.55752 5.1796395,21.945368 14.546311,11.692185 c 0.739351,0.192765 1.479408,0.626947 2.330646,0.105917 0.851459,-0.52132 1.865712,-1.9592184 1.865712,-1.9592184 0.298796,-0.2334483 3.288969,-2.6163904 3.293359,-3.6880991 0.0049,-1.1251002 -0.688516,-0.8240186 -0.688516,-0.8240186 L 17.945397,8.8848153 17.401823,8.2342918 C 17.912911,7.5353622 18.468341,6.9007377 19.049125,6.2649911 L 20.732361,4.4224636 C 20.969403,4.0676334 20.806757,3.9588131 20.69856,3.7951702 20.625905,3.6834521 20.560491,3.563654 20.445059,3.4913207 z"
       id="path3779"
       inkscape:connector-curvature="0" />
    <path
       style="fill:#eaaa0e;fill-opacity:1;fill-rule:nonzero;stroke:none"
       d="m 2.0358596,2.0776299 c 0,0 0.1407771,2.1758548 0.5689588,2.734203 l 4.4935962,5.8595191 c 0.4278718,0.557941 0.8866418,0.916695 1.009724,0.818586 L 8.866472,10.884922 17.424163,22.04388 18.940884,20.833963 10.383193,9.6750025 11.331109,8.9187317 C 11.454163,8.820639 10.933893,8.4847501 10.747966,7.7598511 10.007882,4.874649 6.1644746,2.9987162 3.1475235,2.0329683 l -1.1116602,0.04466 z"
       id="rect4400"
       inkscape:connector-curvature="0" />
  </g>
</svg>
