<?xml version="1.0" encoding="UTF-8" standalone="no"?>
<!-- Created with Inkscape (http://www.inkscape.org/) -->

<svg
   xmlns:dc="http://purl.org/dc/elements/1.1/"
   xmlns:cc="http://creativecommons.org/ns#"
   xmlns:rdf="http://www.w3.org/1999/02/22-rdf-syntax-ns#"
   xmlns:svg="http://www.w3.org/2000/svg"
   xmlns="http://www.w3.org/2000/svg"
   xmlns:sodipodi="http://sodipodi.sourceforge.net/DTD/sodipodi-0.dtd"
   xmlns:inkscape="http://www.inkscape.org/namespaces/inkscape"
   width="24"
   height="24"
   id="svg2"
   version="1.1"
   inkscape:version="0.48.4 r9939"
   sodipodi:docname="ic_category_sport.svg">
  <defs
     id="defs4" />
  <sodipodi:namedview
     id="base"
     pagecolor="#ffffff"
     bordercolor="#666666"
     borderopacity="1.0"
     inkscape:pageopacity="0.0"
     inkscape:pageshadow="2"
     inkscape:zoom="22.4"
     inkscape:cx="0.39039114"
     inkscape:cy="10.235162"
     inkscape:document-units="px"
     inkscape:current-layer="layer1"
     showgrid="true"
     inkscape:window-width="1680"
     inkscape:window-height="1026"
     inkscape:window-x="0"
     inkscape:window-y="24"
     inkscape:window-maximized="1">
    <inkscape:grid
       type="xygrid"
       id="grid2985"
       empspacing="5"
       visible="true"
       enabled="true"
       snapvisiblegridlinesonly="true" />
  </sodipodi:namedview>
  <metadata
     id="metadata7">
    <rdf:RDF>
      <cc:Work
         rdf:about="">
        <dc:format>image/svg+xml</dc:format>
        <dc:type
           rdf:resource="http://purl.org/dc/dcmitype/StillImage" />
        <dc:title />
      </cc:Work>
    </rdf:RDF>
  </metadata>
  <g
     inkscape:label="Layer 1"
     inkscape:groupmode="layer"
     id="layer1"
     transform="translate(0,-1028.3622)">
    <path
       inkscape:connector-curvature="0"
       style="fill:#ffffff;stroke:#000000;stroke-width:1.62261403000000004;stroke-linecap:round;stroke-linejoin:round;stroke-miterlimit:4;stroke-opacity:1;stroke-dasharray:none;fill-opacity:1"
       d="m 21.188693,1040.3621 c 0,5.0703 -4.113918,9.1805 -9.188693,9.1805 -5.074776,0 -9.1886932,-4.1102 -9.1886932,-9.1805 0,-5.0701 4.1139171,-9.1803 9.1886932,-9.1803 5.074775,0 9.188693,4.1102 9.188693,9.1803 z"
       id="path5286" />
    <path
       inkscape:connector-curvature="0"
       style="fill:#000000;fill-opacity:1;fill-rule:nonzero;stroke:none"
       d="m 8.8998549,1031.9687 -2.7879274,1.339 c -0.1575485,0.1462 -0.287827,0.3195 -0.4356136,0.4751 l 0.5227364,3.3691 3.6155929,0.6048 1.6553318,-3.1964 -2.5701202,-2.5916 z"
       id="path5283" />
    <path
       inkscape:connector-curvature="0"
       style="fill:#000000;fill-opacity:1;fill-rule:nonzero;stroke:none"
       d="m 3.2833677,1038.4702 c -0.048165,0.4713 -0.061618,0.9822 -0.061618,1.4663 0,1.6598 0.330044,3.2271 0.8626341,4.7045 l 1.8485047,-3.5436 -2.6495224,-2.6272 z"
       id="path5280" />
    <path
       inkscape:connector-curvature="0"
       style="fill:#000000;fill-opacity:1;fill-rule:nonzero;stroke:none"
       d="m 8.9051259,1045.383 -2.7410361,1.3123 c 1.2959437,1.3466 2.9240014,2.3696 4.7731842,2.9052 l 0.756148,-1.4059 -2.7882962,-2.8116 z"
       id="path5277" />
    <path
       inkscape:connector-curvature="0"
       style="fill:#000000;fill-opacity:1;fill-rule:nonzero;stroke:none"
       d="m 18.810872,1042.5768 -3.468305,1.7426 0.55493,3.8059 0.277463,0.046 c 1.660726,-1.0422 3.017778,-2.5456 3.884503,-4.3105 l -1.248591,-1.2838 z"
       id="path4712" />
    <path
       sodipodi:type="star"
       style="fill:#000000;fill-opacity:1;fill-rule:nonzero;stroke:none"
       id="path5226"
       sodipodi:sides="5"
       sodipodi:cx="29"
       sodipodi:cy="3"
       sodipodi:r1="2.236068"
       sodipodi:r2="1.8090169"
       sodipodi:arg1="1.1071487"
       sodipodi:arg2="1.7354672"
       inkscape:flatsided="true"
       inkscape:rounded="1.9775848e-16"
       inkscape:randomized="0"
       d="M 30,5 27.406904,4.5690906 27.015412,1.9697513 29.366553,0.79418072 31.21113,2.6669774 z"
       transform="matrix(1.4959728,0.28712474,-0.2847087,1.4833848,-30.830195,1028.9705)"
       inkscape:transform-center-x="-0.30053505"
       inkscape:transform-center-y="0.033659535" />
    <path
       inkscape:connector-curvature="0"
       style="fill:#000000;fill-opacity:1;fill-rule:nonzero;stroke:none"
       inkscape:transform-center-x="-0.17246101"
       inkscape:transform-center-y="-0.15664936"
       d="m 18.018506,1038.4062 -3.689292,-0.6081 -0.556989,-3.667 3.345052,-1.6583 2.624347,2.6421 z"
       id="path5228" />
  </g>
</svg>
