<?xml version="1.0" encoding="UTF-8" standalone="no"?>
<!-- Created with Inkscape (http://www.inkscape.org/) -->

<svg
   xmlns:dc="http://purl.org/dc/elements/1.1/"
   xmlns:cc="http://creativecommons.org/ns#"
   xmlns:rdf="http://www.w3.org/1999/02/22-rdf-syntax-ns#"
   xmlns:svg="http://www.w3.org/2000/svg"
   xmlns="http://www.w3.org/2000/svg"
   xmlns:sodipodi="http://sodipodi.sourceforge.net/DTD/sodipodi-0.dtd"
   xmlns:inkscape="http://www.inkscape.org/namespaces/inkscape"
   width="24"
   height="24"
   id="svg2"
   version="1.1"
   inkscape:version="0.48.4 r9939"
   sodipodi:docname="ic_category_running.svg">
  <defs
     id="defs4" />
  <sodipodi:namedview
     id="base"
     pagecolor="#ffffff"
     bordercolor="#666666"
     borderopacity="1.0"
     inkscape:pageopacity="0.0"
     inkscape:pageshadow="2"
     inkscape:zoom="15.839192"
     inkscape:cx="7.2277049"
     inkscape:cy="11.226018"
     inkscape:document-units="px"
     inkscape:current-layer="layer3"
     showgrid="true"
     inkscape:window-width="1680"
     inkscape:window-height="1026"
     inkscape:window-x="0"
     inkscape:window-y="24"
     inkscape:window-maximized="1">
    <inkscape:grid
       type="xygrid"
       id="grid2985"
       empspacing="5"
       visible="true"
       enabled="true"
       snapvisiblegridlinesonly="true" />
  </sodipodi:namedview>
  <metadata
     id="metadata7">
    <rdf:RDF>
      <cc:Work
         rdf:about="">
        <dc:format>image/svg+xml</dc:format>
        <dc:type
           rdf:resource="http://purl.org/dc/dcmitype/StillImage" />
        <dc:title></dc:title>
      </cc:Work>
    </rdf:RDF>
  </metadata>
  <g
     inkscape:label="Layer 1"
     inkscape:groupmode="layer"
     id="layer1"
     transform="translate(0,-1028.3622)">
    <path
       id="path4470"
       style="fill:none;stroke:#365600;stroke-width:1.57570838999999996;stroke-linecap:round;stroke-linejoin:round;stroke-miterlimit:4;stroke-opacity:1;stroke-dasharray:none"
       d="m 13.44715,1049.5697 1.316406,-4.3788 -2.114081,-3.2854 m -1.563277,0.1567 -1.7217729,4.1716 -3.4435464,-1.0429" />
    <path
       id="path4478"
       style="fill:none;stroke:#00004d;stroke-width:1.57570838999999996;stroke-linecap:round;stroke-linejoin:round;stroke-miterlimit:4;stroke-opacity:1;stroke-dasharray:none"
       d="m 11.876218,1035.9635 -4.4152751,1.1363 -0.3089546,2.5769 m 5.3854697,-3.7454 3.538628,2.0852 2.421302,-1.5089" />
    <path
       style="fill:#c56f00;fill-opacity:1;fill-rule:nonzero;stroke:none"
       d="m 14,3 c 0,1.1045695 -0.895431,2 -2,2 -1.104569,0 -2,-0.8954305 -2,-2 0,-1.1045695 0.895431,-2 2,-2 1.104569,0 2,0.8954305 2,2 z"
       id="path4480"
       transform="matrix(1.2106517,0,0,1.0182618,-2.0174276,1029.3486)" />
  </g>
  <g
     inkscape:groupmode="layer"
     id="layer3"
     inkscape:label="Layer">
    <path
       style="fill:#720000;fill-opacity:1;stroke:none"
       d="m 13.121717,1042.1078 c -0.54027,0.7837 -1.751901,0.7837 -2.292171,0 -1.0805399,-1.5669 0,-6.6481 0,-6.6481 0,0 1.751901,-0.7835 2.292171,0 1.080542,1.5669 1.080542,5.0812 0,6.6481 z"
       id="path4474"
       inkscape:connector-curvature="0"
       sodipodi:nodetypes="sscss"
       transform="translate(0,-1028.3622)" />
  </g>
</svg>
