<?xml version="1.0" encoding="UTF-8" standalone="no"?>
<!-- Created with Inkscape (http://www.inkscape.org/) -->

<svg
   xmlns:dc="http://purl.org/dc/elements/1.1/"
   xmlns:cc="http://creativecommons.org/ns#"
   xmlns:rdf="http://www.w3.org/1999/02/22-rdf-syntax-ns#"
   xmlns:svg="http://www.w3.org/2000/svg"
   xmlns="http://www.w3.org/2000/svg"
   xmlns:sodipodi="http://sodipodi.sourceforge.net/DTD/sodipodi-0.dtd"
   xmlns:inkscape="http://www.inkscape.org/namespaces/inkscape"
   width="24"
   height="24"
   id="svg2"
   version="1.1"
   inkscape:version="0.48.4 r9939"
   sodipodi:docname="ic_category_sport.svg">
  <defs
     id="defs4" />
  <sodipodi:namedview
     id="base"
     pagecolor="#ffffff"
     bordercolor="#666666"
     borderopacity="1.0"
     inkscape:pageopacity="0.0"
     inkscape:pageshadow="2"
     inkscape:zoom="15.839192"
     inkscape:cx="3.2428933"
     inkscape:cy="3.4861858"
     inkscape:document-units="px"
     inkscape:current-layer="layer2"
     showgrid="true"
     inkscape:window-width="1680"
     inkscape:window-height="1026"
     inkscape:window-x="0"
     inkscape:window-y="24"
     inkscape:window-maximized="1">
    <inkscape:grid
       type="xygrid"
       id="grid2985"
       empspacing="5"
       visible="true"
       enabled="true"
       snapvisiblegridlinesonly="true" />
  </sodipodi:namedview>
  <metadata
     id="metadata7">
    <rdf:RDF>
      <cc:Work
         rdf:about="">
        <dc:format>image/svg+xml</dc:format>
        <dc:type
           rdf:resource="http://purl.org/dc/dcmitype/StillImage" />
        <dc:title />
      </cc:Work>
    </rdf:RDF>
  </metadata>
  <g
     inkscape:label="Layer 1"
     inkscape:groupmode="layer"
     id="layer1"
     transform="translate(0,-1028.3622)">
    <path
       sodipodi:type="arc"
       style="fill:none;stroke:#2a6c00;stroke-width:1.09655964;stroke-miterlimit:4;stroke-opacity:1;stroke-dasharray:none"
       id="path2994"
       sodipodi:cx="7"
       sodipodi:cy="8"
       sodipodi:rx="3"
       sodipodi:ry="3"
       d="M 10,8 A 3,3 0 1 1 4,8 3,3 0 1 1 10,8 z"
       transform="matrix(1.2580632,0,0,-1.2580632,3.1655811,1047.6886)" />
    <path
       transform="matrix(1.2580632,0,0,-1.2580632,-2.3424823,1047.6886)"
       d="M 10,8 A 3,3 0 1 1 4,8 3,3 0 1 1 10,8 z"
       sodipodi:ry="3"
       sodipodi:rx="3"
       sodipodi:cy="8"
       sodipodi:cx="7"
       id="path2996"
       style="fill:none;stroke:#730000;stroke-width:1.09655964;stroke-miterlimit:4;stroke-opacity:1;stroke-dasharray:none"
       sodipodi:type="arc" />
    <path
       sodipodi:type="arc"
       style="fill:none;stroke:#2980cd;stroke-width:1.09655964;stroke-miterlimit:4;stroke-opacity:1;stroke-dasharray:none"
       id="path2998"
       sodipodi:cx="7"
       sodipodi:cy="8"
       sodipodi:rx="3"
       sodipodi:ry="3"
       d="M 10,8 A 3,3 0 1 1 4,8 3,3 0 1 1 10,8 z"
       transform="matrix(1.2580632,0,0,-1.2580632,8.7295975,1047.6886)" />
  </g>
  <g
     inkscape:groupmode="layer"
     id="layer2"
     inkscape:label="Layer">
    <path
       sodipodi:type="arc"
       style="fill:none;stroke:#e40000;stroke-width:1.09655963999999995;stroke-miterlimit:4;stroke-opacity:1;stroke-dasharray:none"
       id="path2990"
       sodipodi:cx="7"
       sodipodi:cy="8"
       sodipodi:rx="3"
       sodipodi:ry="3"
       d="M 10,8 A 3,3 0 1 1 4,8 3,3 0 1 1 10,8 z"
       transform="matrix(1.2580632,0,0,-1.2580632,0.24554605,24.8026)" />
    <path
       transform="matrix(1.2580632,0,0,-1.2580632,6.0909517,24.8026)"
       d="M 10,8 A 3,3 0 1 1 4,8 3,3 0 1 1 10,8 z"
       sodipodi:ry="3"
       sodipodi:rx="3"
       sodipodi:cy="8"
       sodipodi:cx="7"
       id="path2992"
       style="fill:none;stroke:#bab40e;stroke-width:1.09655963999999995;stroke-miterlimit:4;stroke-opacity:1;stroke-dasharray:none"
       sodipodi:type="arc" />
  </g>
</svg>
