<?xml version="1.0" encoding="UTF-8" standalone="no"?>
<!-- Created with Inkscape (http://www.inkscape.org/) -->

<svg
   xmlns:dc="http://purl.org/dc/elements/1.1/"
   xmlns:cc="http://creativecommons.org/ns#"
   xmlns:rdf="http://www.w3.org/1999/02/22-rdf-syntax-ns#"
   xmlns:svg="http://www.w3.org/2000/svg"
   xmlns="http://www.w3.org/2000/svg"
   xmlns:sodipodi="http://sodipodi.sourceforge.net/DTD/sodipodi-0.dtd"
   xmlns:inkscape="http://www.inkscape.org/namespaces/inkscape"
   width="24"
   height="24"
   id="svg2"
   version="1.1"
   inkscape:version="0.48.4 r9939"
   sodipodi:docname="ic_category_sport.svg">
  <defs
     id="defs4" />
  <sodipodi:namedview
     id="base"
     pagecolor="#ffffff"
     bordercolor="#666666"
     borderopacity="1.0"
     inkscape:pageopacity="0.0"
     inkscape:pageshadow="2"
     inkscape:zoom="22.4"
     inkscape:cx="13.560034"
     inkscape:cy="10.235162"
     inkscape:document-units="px"
     inkscape:current-layer="layer1"
     showgrid="true"
     inkscape:window-width="1680"
     inkscape:window-height="1026"
     inkscape:window-x="0"
     inkscape:window-y="24"
     inkscape:window-maximized="1">
    <inkscape:grid
       type="xygrid"
       id="grid2985"
       empspacing="5"
       visible="true"
       enabled="true"
       snapvisiblegridlinesonly="true" />
  </sodipodi:namedview>
  <metadata
     id="metadata7">
    <rdf:RDF>
      <cc:Work
         rdf:about="">
        <dc:format>image/svg+xml</dc:format>
        <dc:type
           rdf:resource="http://purl.org/dc/dcmitype/StillImage" />
        <dc:title />
      </cc:Work>
    </rdf:RDF>
  </metadata>
  <g
     inkscape:label="Layer 1"
     inkscape:groupmode="layer"
     id="layer1"
     transform="translate(0,-1028.3622)">
    <path
       inkscape:connector-curvature="0"
       style="fill:none;stroke:#000000;stroke-width:1.46027505;stroke-linecap:round;stroke-linejoin:round;stroke-miterlimit:4;stroke-opacity:1;stroke-dasharray:none"
       d="m 20.29306,1040.3884 c 0,4.563 -3.702329,8.262 -8.269384,8.262 -4.5670561,0 -8.2693848,-3.699 -8.2693848,-8.262 0,-4.5629 3.7023287,-8.2619 8.2693848,-8.2619 4.567055,0 8.269384,3.699 8.269384,8.2619 z"
       id="path5286" />
    <path
       inkscape:connector-curvature="0"
       style="fill:#000000;fill-opacity:1;fill-rule:nonzero;stroke:none"
       d="m 9.2336933,1032.8347 -2.5090013,1.205 c -0.1417862,0.1316 -0.2590306,0.2876 -0.3920315,0.4276 l 0.4704378,3.032 3.2538607,0.5443 1.48972,-2.8766 -2.3129857,-2.3323 z"
       id="path5283" />
    <path
       inkscape:connector-curvature="0"
       style="fill:#000000;fill-opacity:1;fill-rule:nonzero;stroke:none"
       d="m 4.1791234,1038.6857 c -0.043346,0.4242 -0.055453,0.884 -0.055453,1.3196 0,1.4938 0.2970238,2.9043 0.7763295,4.2339 l 1.6635659,-3.1891 -2.3844435,-2.3644 z"
       id="path5280" />
    <path
       inkscape:connector-curvature="0"
       style="fill:#000000;fill-opacity:1;fill-rule:nonzero;stroke:none"
       d="m 9.238437,1044.9069 -2.4668015,1.181 c 1.1662874,1.2119 2.6314614,2.1326 4.2956375,2.6146 l 0.680497,-1.2653 -2.509333,-2.5303 z"
       id="path5277" />
    <path
       inkscape:connector-curvature="0"
       style="fill:#000000;fill-opacity:1;fill-rule:nonzero;stroke:none"
       d="m 18.153135,1042.3815 -3.121309,1.5682 0.499411,3.4252 0.249703,0.041 c 1.494574,-0.9379 2.715856,-2.2909 3.495867,-3.8792 l -1.123672,-1.1554 z"
       id="path4712" />
    <path
       sodipodi:type="star"
       style="fill:#000000;fill-opacity:1;fill-rule:nonzero;stroke:none"
       id="path5226"
       sodipodi:sides="5"
       sodipodi:cx="29"
       sodipodi:cy="3"
       sodipodi:r1="2.236068"
       sodipodi:r2="1.8090169"
       sodipodi:arg1="1.1071487"
       sodipodi:arg2="1.7354672"
       inkscape:flatsided="true"
       inkscape:rounded="1.9775848e-16"
       inkscape:randomized="0"
       d="M 30,5 27.406904,4.5690906 27.015412,1.9697513 29.366553,0.79418072 31.21113,2.6669774 z"
       transform="matrix(1.346304,0.25839854,-0.25622422,1.3349754,-26.521452,1030.1365)"
       inkscape:transform-center-x="-0.27046714"
       inkscape:transform-center-y="0.030325945" />
    <path
       inkscape:connector-curvature="0"
       style="fill:#000000;fill-opacity:1;fill-rule:nonzero;stroke:none"
       inkscape:transform-center-x="-0.15520664"
       inkscape:transform-center-y="-0.14098371"
       d="m 17.440044,1038.6281 -3.320187,-0.5472 -0.501263,-3.3001 3.010387,-1.4924 2.361786,2.3777 z"
       id="path5228" />
  </g>
</svg>
