<?xml version="1.0" encoding="UTF-8" standalone="no"?>
<!-- Created with Inkscape (http://www.inkscape.org/) -->

<svg
   xmlns:dc="http://purl.org/dc/elements/1.1/"
   xmlns:cc="http://creativecommons.org/ns#"
   xmlns:rdf="http://www.w3.org/1999/02/22-rdf-syntax-ns#"
   xmlns:svg="http://www.w3.org/2000/svg"
   xmlns="http://www.w3.org/2000/svg"
   xmlns:sodipodi="http://sodipodi.sourceforge.net/DTD/sodipodi-0.dtd"
   xmlns:inkscape="http://www.inkscape.org/namespaces/inkscape"
   width="24"
   height="24"
   id="svg2"
   version="1.1"
   inkscape:version="0.48.4 r9939"
   sodipodi:docname="ic_category_work.svg">
  <defs
     id="defs4" />
  <sodipodi:namedview
     id="base"
     pagecolor="#ffffff"
     bordercolor="#666666"
     borderopacity="1.0"
     inkscape:pageopacity="0.0"
     inkscape:pageshadow="2"
     inkscape:zoom="15.839192"
     inkscape:cx="3.9648034"
     inkscape:cy="13.07144"
     inkscape:document-units="px"
     inkscape:current-layer="layer1"
     showgrid="true"
     inkscape:window-width="1246"
     inkscape:window-height="996"
     inkscape:window-x="10"
     inkscape:window-y="26"
     inkscape:window-maximized="0"
     inkscape:snap-global="true">
    <inkscape:grid
       type="xygrid"
       id="grid2985"
       empspacing="5"
       visible="true"
       enabled="true"
       snapvisiblegridlinesonly="true" />
  </sodipodi:namedview>
  <metadata
     id="metadata7">
    <rdf:RDF>
      <cc:Work
         rdf:about="">
        <dc:format>image/svg+xml</dc:format>
        <dc:type
           rdf:resource="http://purl.org/dc/dcmitype/StillImage" />
        <dc:title />
      </cc:Work>
    </rdf:RDF>
  </metadata>
  <g
     inkscape:label="Layer 1"
     inkscape:groupmode="layer"
     id="layer1"
     transform="translate(0,-1028.3622)">
    <path
       style="fill:#6b5231;fill-opacity:1;stroke:none"
       d="m 2.6666462,1036.4923 c -0.3693819,0 -0.6647316,0.2695 -0.6647316,0.6226 l 0,10.2299 c 0,0.3531 0.2953497,0.6226 0.6647316,0.6226 l 18.6567988,0 c 0.369383,0 0.664731,-0.2695 0.664731,-0.6226 l 0,-10.2299 c 0,-0.3531 -0.295348,-0.6226 -0.664731,-0.6226 z"
       id="rect3959"
       inkscape:connector-curvature="0"
       sodipodi:nodetypes="sssssssss" />
    <path
       style="fill:#6b5231;fill-opacity:1;stroke:none"
       d="m 6.3149554,1036.5097 c 0,0 1.8342524,-2.6902 3.2573047,-3.2829 1.5034569,-0.6263 3.3825029,-0.6263 4.8859589,0 1.423053,0.5927 3.257304,3.2829 3.257304,3.2829 l -2.169948,0 c 0,0 -0.687723,-1.2495 -1.628653,-1.6415 -0.940929,-0.3919 -2.862436,-0.3919 -3.803365,0 -0.9409309,0.392 -1.6286545,1.6415 -1.6286545,1.6415 z"
       id="path3762"
       inkscape:connector-curvature="0"
       sodipodi:nodetypes="csscczzcc" />
    <path
       sodipodi:type="arc"
       style="fill:#000000;fill-opacity:0.48858451;fill-rule:nonzero;stroke:none"
       id="path3774"
       sodipodi:cx="12.5"
       sodipodi:cy="11.5"
       sodipodi:rx="1.5"
       sodipodi:ry="0.5"
       d="M 14,11.5 C 14,11.776142 13.328427,12 12.5,12 11.671573,12 11,11.776142 11,11.5 11,11.223858 11.671573,11 12.5,11 c 0.828427,0 1.5,0.223858 1.5,0.5 z"
       transform="matrix(1.0772407,0,0,2.5462865,-1.4615043,1010.2544)" />
    <path
       style="fill:#000000;fill-opacity:0.48858451;stroke:none"
       d="M 1.9999999,1039.2475 12,1042.5687 l 10,-3.3212 0,1.6605 -10,3.3212 -10.0000001,-3.3212 z"
       id="path3784"
       inkscape:connector-curvature="0" />
  </g>
</svg>
