<?xml version="1.0" encoding="UTF-8" standalone="no"?>
<!-- Created with Inkscape (http://www.inkscape.org/) -->

<svg
   xmlns:dc="http://purl.org/dc/elements/1.1/"
   xmlns:cc="http://creativecommons.org/ns#"
   xmlns:rdf="http://www.w3.org/1999/02/22-rdf-syntax-ns#"
   xmlns:svg="http://www.w3.org/2000/svg"
   xmlns="http://www.w3.org/2000/svg"
   xmlns:sodipodi="http://sodipodi.sourceforge.net/DTD/sodipodi-0.dtd"
   xmlns:inkscape="http://www.inkscape.org/namespaces/inkscape"
   width="24"
   height="24"
   id="svg2"
   version="1.1"
   inkscape:version="0.48.4 r9939"
   sodipodi:docname="ic_category_food.svg">
  <defs
     id="defs4" />
  <sodipodi:namedview
     id="base"
     pagecolor="#ffffff"
     bordercolor="#666666"
     borderopacity="1.0"
     inkscape:pageopacity="0.0"
     inkscape:pageshadow="2"
     inkscape:zoom="22.627417"
     inkscape:cx="8.599679"
     inkscape:cy="6.936579"
     inkscape:document-units="px"
     inkscape:current-layer="layer1"
     showgrid="true"
     inkscape:window-width="1680"
     inkscape:window-height="1026"
     inkscape:window-x="0"
     inkscape:window-y="24"
     inkscape:window-maximized="1"
     inkscape:snap-global="true">
    <inkscape:grid
       type="xygrid"
       id="grid2985"
       empspacing="5"
       visible="true"
       enabled="true"
       snapvisiblegridlinesonly="true" />
  </sodipodi:namedview>
  <metadata
     id="metadata7">
    <rdf:RDF>
      <cc:Work
         rdf:about="">
        <dc:format>image/svg+xml</dc:format>
        <dc:type
           rdf:resource="http://purl.org/dc/dcmitype/StillImage" />
        <dc:title />
      </cc:Work>
    </rdf:RDF>
  </metadata>
  <g
     inkscape:label="Layer 1"
     inkscape:groupmode="layer"
     id="layer1"
     transform="translate(0,-1028.3622)">
    <path
       style="fill:#313df2;fill-opacity:1;stroke:#89d7ff;stroke-width:0.84727895;stroke-linecap:round;stroke-linejoin:miter;stroke-miterlimit:4;stroke-opacity:1;stroke-dasharray:none"
       d="m 11.222355,1039.7591 c 1.017638,0 1.017638,0 1.017638,0 l 0,0"
       id="path3987"
       inkscape:connector-curvature="0" />
    <path
       sodipodi:type="arc"
       style="fill:#150042;fill-opacity:1;fill-rule:nonzero;stroke:none"
       id="path3860"
       sodipodi:cx="37.5"
       sodipodi:cy="16.5"
       sodipodi:rx="7.5"
       sodipodi:ry="7.5"
       d="m 45,16.5 a 7.5,7.5 0 1 1 -15,0 7.5,7.5 0 1 1 15,0 z"
       transform="matrix(0.89350409,0,0,0.92352679,-21.690974,1025.32)" />
    <path
       style="fill:#185610;fill-opacity:1;stroke:none"
       d="m 20.115396,1031.2145 c -0.07607,0.034 -0.159006,0.1176 -0.159006,0.2946 l 0,1.9357 c 0.02661,0.6562 -0.01648,1.3438 -0.06359,1.9777 l -0.50882,0 -0.0318,-3.8291 c 0,0 -0.175377,-0.5676 -0.604224,0 -0.428847,0.5673 0,3.9975 0,3.9975 -0.02302,0.2376 -0.14006,1.2475 0,1.9356 0.157327,0.7728 0.633854,0.9994 1.017639,1.3466 l 0,10.772 1.017639,0 0,-10.772 c 0.383785,-0.3472 0.860312,-0.5738 1.017639,-1.3466 0.157295,-0.773 0.0318,-2.104 0.0318,-2.104 0.03586,-0.2965 0.376794,-3.2886 -0.0318,-3.8291 -0.428847,-0.5676 -0.604224,0 -0.604224,0 l -0.06359,3.8291 -0.477018,0 c -0.05341,-0.6577 -0.0636,-1.3098 -0.0636,-1.9777 l 0,-1.9357 c -0.03652,-0.3206 -0.146377,-0.2775 -0.25441,-0.2946 -0.07319,-0.013 -0.146539,-0.034 -0.222609,0 z"
       id="path3779"
       inkscape:connector-curvature="0" />
    <path
       style="fill:#712b0e;fill-opacity:1;fill-rule:nonzero;stroke:none"
       d="m 2.6360243,1030.8129 c 0,0 -0.6360243,1.3494 -0.6360243,1.88 l 0,5.5694 c 0,0.5303 0.076443,0.9577 0.1590061,0.9577 l 0.5088195,0 0,10.6063 1.017639,0 0,-10.6063 0.6360244,0 c 0.082546,0 -0.026804,-0.4429 0.1272049,-0.9577 0.6130005,-2.0496 -0.3880637,-4.964 -1.3356512,-6.9527 l -0.4770184,-0.4967 z"
       id="rect4400"
       inkscape:connector-curvature="0" />
  </g>
  <g
     inkscape:groupmode="layer"
     id="layer2"
     inkscape:label="Layer">
    <path
       sodipodi:type="arc"
       style="fill:#41cede;fill-opacity:0.63470321;fill-rule:nonzero;stroke:none"
       id="path3862"
       sodipodi:cx="37.5"
       sodipodi:cy="16.5"
       sodipodi:rx="2.5"
       sodipodi:ry="2.5"
       d="m 40,16.5 a 2.5,2.5 0 1 1 -5,0 2.5,2.5 0 1 1 5,0 z"
       transform="matrix(1.6573497,0,0,1.8414506,-50.335181,-18.187984)" />
  </g>
</svg>
