<?xml version="1.0" encoding="UTF-8" standalone="no"?>
<!-- Created with Inkscape (http://www.inkscape.org/) -->

<svg
   xmlns:dc="http://purl.org/dc/elements/1.1/"
   xmlns:cc="http://creativecommons.org/ns#"
   xmlns:rdf="http://www.w3.org/1999/02/22-rdf-syntax-ns#"
   xmlns:svg="http://www.w3.org/2000/svg"
   xmlns="http://www.w3.org/2000/svg"
   xmlns:sodipodi="http://sodipodi.sourceforge.net/DTD/sodipodi-0.dtd"
   xmlns:inkscape="http://www.inkscape.org/namespaces/inkscape"
   width="24"
   height="24"
   id="svg2"
   version="1.1"
   inkscape:version="0.48.4 r9939"
   sodipodi:docname="ic_category_food.svg">
  <defs
     id="defs4" />
  <sodipodi:namedview
     id="base"
     pagecolor="#ffffff"
     bordercolor="#666666"
     borderopacity="1.0"
     inkscape:pageopacity="0.0"
     inkscape:pageshadow="2"
     inkscape:zoom="22.627417"
     inkscape:cx="8.599679"
     inkscape:cy="6.936579"
     inkscape:document-units="px"
     inkscape:current-layer="layer1"
     showgrid="true"
     inkscape:window-width="1680"
     inkscape:window-height="1026"
     inkscape:window-x="0"
     inkscape:window-y="24"
     inkscape:window-maximized="1"
     inkscape:snap-global="true">
    <inkscape:grid
       type="xygrid"
       id="grid2985"
       empspacing="5"
       visible="true"
       enabled="true"
       snapvisiblegridlinesonly="true" />
  </sodipodi:namedview>
  <metadata
     id="metadata7">
    <rdf:RDF>
      <cc:Work
         rdf:about="">
        <dc:format>image/svg+xml</dc:format>
        <dc:type
           rdf:resource="http://purl.org/dc/dcmitype/StillImage" />
        <dc:title />
      </cc:Work>
    </rdf:RDF>
  </metadata>
  <g
     inkscape:label="Layer 1"
     inkscape:groupmode="layer"
     id="layer1"
     transform="translate(0,-1028.3622)">
    <path
       style="fill:#313df2;fill-opacity:1;stroke:#89d7ff;stroke-width:0.76110363;stroke-linecap:round;stroke-linejoin:miter;stroke-miterlimit:4;stroke-opacity:1;stroke-dasharray:none"
       d="m 11.30145,1039.8587 c 0.914136,0 0.914136,0 0.914136,0 l 0,0"
       id="path3987"
       inkscape:connector-curvature="0" />
    <path
       sodipodi:type="arc"
       style="fill:#150042;fill-opacity:1;fill-rule:nonzero;stroke:none"
       id="path3860"
       sodipodi:cx="37.5"
       sodipodi:cy="16.5"
       sodipodi:rx="7.5"
       sodipodi:ry="7.5"
       d="m 45,16.5 a 7.5,7.5 0 1 1 -15,0 7.5,7.5 0 1 1 15,0 z"
       transform="matrix(0.8026273,0,0,0.82959644,-18.26432,1026.8882)" />
    <path
       style="fill:#185610;fill-opacity:1;stroke:none"
       d="m 19.289995,1032.1832 c -0.06833,0.031 -0.142834,0.1056 -0.142834,0.2646 l 0,1.7388 c 0.0239,0.5895 -0.01481,1.2072 -0.05713,1.7765 l -0.457069,0 -0.02857,-3.4396 c 0,0 -0.157539,-0.5099 -0.542769,0 -0.38523,0.5097 0,3.591 0,3.591 -0.02068,0.2134 -0.125815,1.1206 0,1.7387 0.141326,0.6942 0.569385,0.8977 0.914137,1.2096 l 0,9.6764 0.914136,0 0,-9.6764 c 0.344751,-0.3119 0.772811,-0.5154 0.914137,-1.2096 0.141296,-0.6944 0.02857,-1.8901 0.02857,-1.8901 0.03221,-0.2662 0.338471,-2.954 -0.02857,-3.4396 -0.38523,-0.5099 -0.542769,0 -0.542769,0 l -0.05713,3.4396 -0.428502,0 c -0.04798,-0.5907 -0.05713,-1.1765 -0.05713,-1.7765 l 0,-1.7388 c -0.03281,-0.288 -0.131489,-0.2493 -0.228535,-0.2646 -0.06574,-0.012 -0.131634,-0.031 -0.199967,0 z"
       id="path3779"
       inkscape:connector-curvature="0" />
    <path
       style="fill:#712b0e;fill-opacity:1;fill-rule:nonzero;stroke:none"
       d="m 3.5884206,1031.8224 c 0,0 -0.5713354,1.2122 -0.5713354,1.6888 l 0,5.0029 c 0,0.4764 0.068668,0.8603 0.1428339,0.8603 l 0.4570683,0 0,9.5276 0.9141367,0 0,-9.5276 0.5713354,0 c 0.07415,0 -0.024078,-0.3978 0.1142671,-0.8603 0.5506532,-1.8411 -0.3485944,-4.459 -1.1998044,-6.2455 l -0.4285016,-0.4462 z"
       id="rect4400"
       inkscape:connector-curvature="0" />
  </g>
  <g
     inkscape:groupmode="layer"
     id="layer2"
     inkscape:label="Layer">
    <path
       sodipodi:type="arc"
       style="fill:#41cede;fill-opacity:0.63470321;fill-rule:nonzero;stroke:none"
       id="path3862"
       sodipodi:cx="37.5"
       sodipodi:cy="16.5"
       sodipodi:rx="2.5"
       sodipodi:ry="2.5"
       d="m 40,16.5 a 2.5,2.5 0 1 1 -5,0 2.5,2.5 0 1 1 5,0 z"
       transform="matrix(1.4887834,0,0,1.6541598,-43.995174,-15.079348)" />
  </g>
</svg>
