<?xml version="1.0" encoding="UTF-8" standalone="no"?>
<!-- Created with Inkscape (http://www.inkscape.org/) -->

<svg
   xmlns:dc="http://purl.org/dc/elements/1.1/"
   xmlns:cc="http://creativecommons.org/ns#"
   xmlns:rdf="http://www.w3.org/1999/02/22-rdf-syntax-ns#"
   xmlns:svg="http://www.w3.org/2000/svg"
   xmlns="http://www.w3.org/2000/svg"
   xmlns:sodipodi="http://sodipodi.sourceforge.net/DTD/sodipodi-0.dtd"
   xmlns:inkscape="http://www.inkscape.org/namespaces/inkscape"
   width="24"
   height="24"
   id="svg2"
   version="1.1"
   inkscape:version="0.48.4 r9939"
   sodipodi:docname="ic_category_partner.svg">
  <defs
     id="defs4" />
  <sodipodi:namedview
     id="base"
     pagecolor="#ffffff"
     bordercolor="#666666"
     borderopacity="1.0"
     inkscape:pageopacity="0.0"
     inkscape:pageshadow="2"
     inkscape:zoom="15.839192"
     inkscape:cx="-2.6771646"
     inkscape:cy="8.4560194"
     inkscape:document-units="px"
     inkscape:current-layer="layer2"
     showgrid="true"
     inkscape:window-width="1680"
     inkscape:window-height="1026"
     inkscape:window-x="0"
     inkscape:window-y="24"
     inkscape:window-maximized="1">
    <inkscape:grid
       type="xygrid"
       id="grid2985"
       empspacing="5"
       visible="true"
       enabled="true"
       snapvisiblegridlinesonly="true" />
  </sodipodi:namedview>
  <metadata
     id="metadata7">
    <rdf:RDF>
      <cc:Work
         rdf:about="">
        <dc:format>image/svg+xml</dc:format>
        <dc:type
           rdf:resource="http://purl.org/dc/dcmitype/StillImage" />
        <dc:title></dc:title>
      </cc:Work>
    </rdf:RDF>
  </metadata>
  <g
     inkscape:label="Layer 1"
     inkscape:groupmode="layer"
     id="layer1"
     transform="translate(0,-1028.3622)">
    <path
       sodipodi:type="arc"
       style="fill:#a41f3f;fill-opacity:1;fill-rule:nonzero;stroke:none"
       id="path3790"
       sodipodi:cx="8"
       sodipodi:cy="17"
       sodipodi:rx="4"
       sodipodi:ry="4"
       d="m 12,17 a 4,4 0 1 1 -8,0 4,4 0 1 1 8,0 z"
       transform="matrix(1.0165625,0,0,1.0165625,-2.0662501,1025.7919)" />
    <path
       transform="matrix(1.0165625,0,0,1.0165625,9.8012501,1025.7919)"
       d="m 12,17 a 4,4 0 1 1 -8,0 4,4 0 1 1 8,0 z"
       sodipodi:ry="4"
       sodipodi:rx="4"
       sodipodi:cy="17"
       sodipodi:cx="8"
       id="path3792"
       style="fill:#a41f3f;fill-opacity:1;fill-rule:nonzero;stroke:none"
       sodipodi:type="arc" />
    <path
       style="fill:none;stroke:#b8b6b4;stroke-width:1.11319935px;stroke-linecap:butt;stroke-linejoin:miter;stroke-opacity:1"
       d="m 8.5191078,1036.3942 0,-2.2264"
       id="path3796"
       inkscape:connector-curvature="0" />
    <path
       style="fill:#000000;fill-opacity:1;stroke:none"
       d="m 10.957751,1034.2708 c 0,0 -3.2246042,-1.0574 -4.4059222,-0.5467 -0.2953427,0.1273 -0.3753938,0.4863 -0.1514805,0.6784 0.8956718,0.7684 4.4059237,0.5467 4.4059237,0.5467 l 0.151477,-0.6784"
       id="path3798"
       inkscape:connector-curvature="0"
       sodipodi:nodetypes="csscc" />
    <path
       style="fill:#ff9600;fill-opacity:1;stroke:none"
       d="m 16.343465,1034.1331 0,0.034 c -0.07483,0.043 -0.140921,0.2065 -0.208724,0.4174 l -0.69575,2.1221 c -0.08693,0.2704 -0.07653,0.52 0,0.5566 l 0.5566,0.2783 c 0.07653,0.037 0.191371,-0.1818 0.278299,-0.4523 l 0.660963,-2.0524 2.017673,0 0,-0.9044 -2.539486,0 -0.06958,0 z"
       id="path3810"
       inkscape:connector-curvature="0" />
  </g>
  <g
     inkscape:groupmode="layer"
     id="layer2"
     inkscape:label="Layer">
    <path
       id="path3806"
       style="fill:none;stroke:#000047;stroke-width:1.09374094px;stroke-linecap:round;stroke-linejoin:round;stroke-opacity:1"
       d="M 17.993176,14.652799 15.805694,8.0903526 m -7.4203538,-0.03894 3.7296528,6.6403214 0,0 m -6.103409,0 2.3737562,-6.6403214 7.4593048,0 -3.729652,6.6403214 z"
       inkscape:connector-curvature="0"
       sodipodi:nodetypes="cccccccccc" />
    <path
       style="fill:none;stroke:#005b00;stroke-width:0.61119753px;stroke-linecap:round;stroke-linejoin:miter;stroke-opacity:1"
       d="m 18.864999,6.0787062 c 1.309373,1.5761283 -0.421304,2.1836903 -1.482926,2.0705124"
       id="path3804"
       inkscape:connector-curvature="0" />
  </g>
</svg>
