<?xml version="1.0" encoding="UTF-8" standalone="no"?>
<!-- Created with Inkscape (http://www.inkscape.org/) -->

<svg
   xmlns:dc="http://purl.org/dc/elements/1.1/"
   xmlns:cc="http://creativecommons.org/ns#"
   xmlns:rdf="http://www.w3.org/1999/02/22-rdf-syntax-ns#"
   xmlns:svg="http://www.w3.org/2000/svg"
   xmlns="http://www.w3.org/2000/svg"
   xmlns:sodipodi="http://sodipodi.sourceforge.net/DTD/sodipodi-0.dtd"
   xmlns:inkscape="http://www.inkscape.org/namespaces/inkscape"
   width="24"
   height="24"
   id="svg2"
   version="1.1"
   inkscape:version="0.48.4 r9939"
   sodipodi:docname="ic_category_phone.svg">
  <defs
     id="defs4" />
  <sodipodi:namedview
     id="base"
     pagecolor="#ffffff"
     bordercolor="#666666"
     borderopacity="1.0"
     inkscape:pageopacity="0.0"
     inkscape:pageshadow="2"
     inkscape:zoom="15.839192"
     inkscape:cx="-4.6715671"
     inkscape:cy="6.5478"
     inkscape:document-units="px"
     inkscape:current-layer="layer1"
     showgrid="true"
     inkscape:window-width="1280"
     inkscape:window-height="1000"
     inkscape:window-x="1680"
     inkscape:window-y="24"
     inkscape:window-maximized="1"
     showguides="true"
     inkscape:guide-bbox="true"
     inkscape:snap-global="false">
    <inkscape:grid
       type="xygrid"
       id="grid2985"
       empspacing="5"
       visible="true"
       enabled="true"
       snapvisiblegridlinesonly="true" />
  </sodipodi:namedview>
  <metadata
     id="metadata7">
    <rdf:RDF>
      <cc:Work
         rdf:about="">
        <dc:format>image/svg+xml</dc:format>
        <dc:type
           rdf:resource="http://purl.org/dc/dcmitype/StillImage" />
        <dc:title />
      </cc:Work>
    </rdf:RDF>
  </metadata>
  <g
     inkscape:groupmode="layer"
     id="layer2"
     inkscape:label="Layer">
    <rect
       style="fill:#97a3ff;fill-opacity:1;fill-rule:nonzero;stroke:none"
       id="rect3764"
       width="10.759459"
       height="15.690996"
       x="6.6202703"
       y="3.0034707"
       rx="0.63235527"
       ry="0.50210798" />
  </g>
  <g
     inkscape:label="Layer 1"
     inkscape:groupmode="layer"
     id="layer1"
     transform="translate(0,-1028.3622)">
    <path
       style="fill:#95151a;fill-opacity:1;fill-rule:nonzero;stroke:none"
       d="m 7.6985117,1030.3622 c -0.1864498,0.075 -1.7046236,0.2806 -1.7046236,0.489 l 0,19.0221 c 0,0.2775 3.0552106,0.4889 3.342811,0.4889 l 5.3266009,0 c 0.2876,0 3.342812,-0.2114 3.342812,-0.4889 l 0,-19.0221 c 0,-0.2776 -1.505713,-0.489 -1.793314,-0.489 -2.769847,0 -5.778756,0 -8.5142863,0 z m 0.7684806,1.4665 7.0660147,0 c 0.2876,0 0.679791,0.2116 0.679791,0.4889 l 0,13.2444 c 0,0.2776 -0.392191,0.8971 -0.679791,0.8971 l -7.0660147,0 c -0.2876,0 -0.7684806,-0.6194 -0.7684806,-0.8971 l 0,-13.2444 c 0,-0.2773 0.4808806,-0.4889 0.7684806,-0.4889 z"
       id="rect4842"
       inkscape:connector-curvature="0"
       sodipodi:nodetypes="cssssssccsssssssss" />
    <path
       style="fill:#000000;fill-opacity:1;stroke:none"
       d="m 11.141509,1048.3217 c 1.716982,0 1.716982,0 1.716982,0"
       id="path4847"
       inkscape:connector-curvature="0" />
    <path
       style="fill:#e09500;fill-opacity:1;stroke:none"
       d="m 9.3967545,1047.6768 5.1306085,0 c 0,0 0.755811,0.4195 0,1.022 -0.755812,0.6017 -4.374795,0.6017 -5.1306085,0 -0.7558079,-0.6025 0,-1.022 0,-1.022"
       id="path3762"
       inkscape:connector-curvature="0"
       sodipodi:nodetypes="cczzc" />
  </g>
  <g
     inkscape:groupmode="layer"
     id="layer3"
     inkscape:label="Layer#1" />
</svg>
