<?xml version="1.0" encoding="UTF-8" standalone="no"?>
<!-- Created with Inkscape (http://www.inkscape.org/) -->

<svg
   xmlns:dc="http://purl.org/dc/elements/1.1/"
   xmlns:cc="http://creativecommons.org/ns#"
   xmlns:rdf="http://www.w3.org/1999/02/22-rdf-syntax-ns#"
   xmlns:svg="http://www.w3.org/2000/svg"
   xmlns="http://www.w3.org/2000/svg"
   xmlns:sodipodi="http://sodipodi.sourceforge.net/DTD/sodipodi-0.dtd"
   xmlns:inkscape="http://www.inkscape.org/namespaces/inkscape"
   width="24"
   height="24"
   id="svg2"
   version="1.1"
   inkscape:version="0.48.4 r9939"
   sodipodi:docname="ic_category_gaming.svg">
  <defs
     id="defs4" />
  <sodipodi:namedview
     id="base"
     pagecolor="#ffffff"
     bordercolor="#666666"
     borderopacity="1.0"
     inkscape:pageopacity="0.0"
     inkscape:pageshadow="2"
     inkscape:zoom="15.839192"
     inkscape:cx="-0.79613568"
     inkscape:cy="5.6415774"
     inkscape:document-units="px"
     inkscape:current-layer="layer1"
     showgrid="true"
     inkscape:window-width="1680"
     inkscape:window-height="1026"
     inkscape:window-x="0"
     inkscape:window-y="24"
     inkscape:window-maximized="1">
    <inkscape:grid
       type="xygrid"
       id="grid2985"
       empspacing="5"
       visible="true"
       enabled="true"
       snapvisiblegridlinesonly="true" />
  </sodipodi:namedview>
  <metadata
     id="metadata7">
    <rdf:RDF>
      <cc:Work
         rdf:about="">
        <dc:format>image/svg+xml</dc:format>
        <dc:type
           rdf:resource="http://purl.org/dc/dcmitype/StillImage" />
        <dc:title />
      </cc:Work>
    </rdf:RDF>
  </metadata>
  <g
     inkscape:groupmode="layer"
     id="layer2"
     inkscape:label="Layer">
    <path
       style="fill:none;stroke:#c58003;stroke-width:1.05441761px;stroke-linecap:round;stroke-linejoin:miter;stroke-opacity:1"
       d="M 11.88471,8.9242076 C 10.155131,3.7365343 15.461143,4.7975886 17.544763,4.9955897"
       id="path3797"
       inkscape:connector-curvature="0" />
  </g>
  <g
     inkscape:label="Layer 1"
     inkscape:groupmode="layer"
     id="layer1"
     transform="translate(0,-1028.3622)">
    <path
       style="fill:#313df2;fill-opacity:1;stroke:#89d7ff;stroke-width:0.9716934;stroke-linecap:round;stroke-linejoin:miter;stroke-miterlimit:4;stroke-opacity:1;stroke-dasharray:none"
       d="m 11.354484,1039.5826 c 1.257352,0 1.257352,0 1.257352,0 l 0,0"
       id="path3987"
       inkscape:connector-curvature="0" />
    <path
       style="fill:#1d9765;fill-opacity:1;fill-rule:nonzero;stroke:#083400;stroke-width:1.47848809;stroke-linecap:round;stroke-linejoin:round;stroke-miterlimit:4;stroke-opacity:1;stroke-dasharray:none"
       d="m 5.4402977,1035.8626 c -0.3257418,-0.1611 -0.6431079,0.2851 -0.6431079,0.6597 l -0.1286216,-0.1189 -1.4791486,1.3791 -0.4501756,9.5936 2.0579458,0 1.0782793,-1.8212 1.078277,-0.7381 2.5147069,-1.0831 2.441289,0 2.551415,0 2.551416,1.0831 1.05841,0.7385 1.058409,1.8217 2.131364,-9e-4 -0.450175,-9.5936 -1.479149,-1.3791 -0.128621,0.1189 c 0,-0.3746 -0.276648,-0.6597 -0.643109,-0.6597 l -2.804482,1.3714 -3.755219,0.5476 -3.7889015,-0.5476 z"
       id="rect2993"
       inkscape:connector-curvature="0"
       sodipodi:nodetypes="scccccccccccccccccscccs" />
    <path
       style="fill:#080000;fill-opacity:1;stroke:#000000;stroke-width:1.23313797px;stroke-linecap:round;stroke-linejoin:miter;stroke-opacity:1"
       d="m 8.026512,1040.4413 -2.5540587,0"
       id="path3002"
       inkscape:connector-curvature="0" />
    <path
       style="fill:#080000;fill-opacity:1;stroke:#000000;stroke-width:1.23313797px;stroke-linecap:round;stroke-linejoin:miter;stroke-opacity:1"
       d="m 6.7494826,1039.2507 0,2.3814"
       id="path3004"
       inkscape:connector-curvature="0" />
    <path
       sodipodi:type="arc"
       style="fill:#d9d600;fill-opacity:1;fill-rule:nonzero;stroke:none"
       id="path3774"
       sodipodi:cx="-9.5"
       sodipodi:cy="2.5"
       sodipodi:rx="0.5"
       sodipodi:ry="0.5"
       d="m -9,2.5 a 0.5,0.5 0 1 1 -1,0 0.5,0.5 0 1 1 1,0 z"
       transform="matrix(2.0579457,0,0,1.9189154,35.648002,1035.777)" />
    <path
       transform="matrix(2.0579457,0,0,1.9189154,38.03669,1034.4065)"
       d="m -9,2.5 a 0.5,0.5 0 1 1 -1,0 0.5,0.5 0 1 1 1,0 z"
       sodipodi:ry="0.5"
       sodipodi:rx="0.5"
       sodipodi:cy="2.5"
       sodipodi:cx="-9.5"
       id="path3776"
       style="fill:#0834d3;fill-opacity:1;fill-rule:nonzero;stroke:none"
       sodipodi:type="arc" />
    <path
       style="fill:#085000;fill-opacity:1;stroke:#843400;stroke-width:0.93313217px;stroke-linecap:round;stroke-linejoin:miter;stroke-opacity:1"
       d="m 9.97485,1041.3323 c 0.932509,0 0.932509,0 0.932509,0"
       id="path3778"
       inkscape:connector-curvature="0" />
    <path
       inkscape:connector-curvature="0"
       id="path3780"
       d="m 12.741871,1041.3323 c 0.932506,0 0.932506,0 0.932506,0"
       style="fill:#085000;fill-opacity:1;stroke:#843400;stroke-width:0.93313217px;stroke-linecap:round;stroke-linejoin:miter;stroke-opacity:1" />
  </g>
</svg>
