<?xml version="1.0" encoding="UTF-8" standalone="no"?>
<!-- Created with Inkscape (http://www.inkscape.org/) -->

<svg
   xmlns:dc="http://purl.org/dc/elements/1.1/"
   xmlns:cc="http://creativecommons.org/ns#"
   xmlns:rdf="http://www.w3.org/1999/02/22-rdf-syntax-ns#"
   xmlns:svg="http://www.w3.org/2000/svg"
   xmlns="http://www.w3.org/2000/svg"
   xmlns:sodipodi="http://sodipodi.sourceforge.net/DTD/sodipodi-0.dtd"
   xmlns:inkscape="http://www.inkscape.org/namespaces/inkscape"
   width="24"
   height="24"
   id="svg2"
   version="1.1"
   inkscape:version="0.48.4 r9939"
   sodipodi:docname="ic_item_notification.svg">
  <defs
     id="defs4" />
  <sodipodi:namedview
     id="base"
     pagecolor="#ffffff"
     bordercolor="#666666"
     borderopacity="1.0"
     inkscape:pageopacity="0.0"
     inkscape:pageshadow="2"
     inkscape:zoom="31.678384"
     inkscape:cx="8.9669429"
     inkscape:cy="12.082354"
     inkscape:document-units="px"
     inkscape:current-layer="layer1"
     showgrid="true"
     inkscape:window-width="1680"
     inkscape:window-height="1026"
     inkscape:window-x="0"
     inkscape:window-y="24"
     inkscape:window-maximized="1"
     inkscape:snap-global="true">
    <inkscape:grid
       type="xygrid"
       id="grid2985"
       empspacing="5"
       visible="true"
       enabled="true"
       snapvisiblegridlinesonly="true" />
  </sodipodi:namedview>
  <metadata
     id="metadata7">
    <rdf:RDF>
      <cc:Work
         rdf:about="">
        <dc:format>image/svg+xml</dc:format>
        <dc:type
           rdf:resource="http://purl.org/dc/dcmitype/StillImage" />
        <dc:title />
      </cc:Work>
    </rdf:RDF>
  </metadata>
  <g
     inkscape:label="Layer 1"
     inkscape:groupmode="layer"
     id="layer1"
     transform="translate(0,-1028.3622)">
    <path
       style="fill:#ffffff;fill-opacity:1;fill-rule:nonzero;stroke:none"
       d="M 4.75 4 C 4.3297685 4 4 4.1879 4 4.4375 L 4 21.5625 C 4 21.8122 4.3297685 22 4.75 22 L 19.25 22 C 19.67023 22 20 21.8122 20 21.5625 L 20 4.4375 C 20 4.1879 19.67023 4 19.25 4 L 18.625 4 L 16.71875 12.3125 L 16.71875 12.34375 L 15.03125 16 L 15.0625 12.03125 L 16.875 4 L 4.75 4 z M 9.375 6 L 9.96875 8.03125 L 12 8.6875 L 10.25 9.875 L 10.28125 12 L 8.59375 10.71875 L 6.5625 11.40625 L 7.25 9.375 L 6 7.6875 L 8.125 7.71875 L 9.375 6 z M 6.8125 15 L 12.1875 15 C 12.6307 15 13 15.3345 13 15.75 C 13 16.1655 12.6307 16.5 12.1875 16.5 L 6.8125 16.5 C 6.3693 16.5 6 16.1655 6 15.75 C 6 15.3345 6.3693 15 6.8125 15 z M 6.8125 18.5 L 17.1875 18.5 C 17.6307 18.5 18 18.8345 18 19.25 C 18 19.6655 17.6307 20 17.1875 20 L 6.8125 20 C 6.3693 20 6 19.6655 6 19.25 C 6 18.8345 6.3693 18.5 6.8125 18.5 z "
       id="rect4294"
       transform="translate(0,1028.3622)" />
  </g>
  <g
     inkscape:groupmode="layer"
     id="layer3"
     inkscape:label="Layer" />
</svg>
