<?xml version="1.0" encoding="UTF-8" standalone="no"?>
<!-- Created with Inkscape (http://www.inkscape.org/) -->

<svg
   xmlns:dc="http://purl.org/dc/elements/1.1/"
   xmlns:cc="http://creativecommons.org/ns#"
   xmlns:rdf="http://www.w3.org/1999/02/22-rdf-syntax-ns#"
   xmlns:svg="http://www.w3.org/2000/svg"
   xmlns="http://www.w3.org/2000/svg"
   xmlns:sodipodi="http://sodipodi.sourceforge.net/DTD/sodipodi-0.dtd"
   xmlns:inkscape="http://www.inkscape.org/namespaces/inkscape"
   width="24"
   height="24"
   id="svg2"
   version="1.1"
   inkscape:version="0.48.4 r9939"
   sodipodi:docname="ic_category_sport.svg">
  <defs
     id="defs4" />
  <sodipodi:namedview
     id="base"
     pagecolor="#ffffff"
     bordercolor="#666666"
     borderopacity="1.0"
     inkscape:pageopacity="0.0"
     inkscape:pageshadow="2"
     inkscape:zoom="22.4"
     inkscape:cx="1.9056684"
     inkscape:cy="15.004718"
     inkscape:document-units="px"
     inkscape:current-layer="layer1"
     showgrid="true"
     inkscape:window-width="1680"
     inkscape:window-height="1026"
     inkscape:window-x="0"
     inkscape:window-y="24"
     inkscape:window-maximized="1">
    <inkscape:grid
       type="xygrid"
       id="grid2985"
       empspacing="5"
       visible="true"
       enabled="true"
       snapvisiblegridlinesonly="true" />
  </sodipodi:namedview>
  <metadata
     id="metadata7">
    <rdf:RDF>
      <cc:Work
         rdf:about="">
        <dc:format>image/svg+xml</dc:format>
        <dc:type
           rdf:resource="http://purl.org/dc/dcmitype/StillImage" />
        <dc:title />
      </cc:Work>
    </rdf:RDF>
  </metadata>
  <g
     inkscape:label="Layer 1"
     inkscape:groupmode="layer"
     id="layer1"
     transform="translate(0,-1028.3622)">
    <path
       sodipodi:type="arc"
       style="fill:#89d7ff;fill-opacity:1;fill-rule:nonzero;stroke:#313df2;stroke-width:0;stroke-linecap:round;stroke-linejoin:round;stroke-miterlimit:4;stroke-opacity:1;stroke-dasharray:none"
       id="path2987"
       sodipodi:cx="18.5"
       sodipodi:cy="17.5"
       sodipodi:rx="6.5"
       sodipodi:ry="6.5"
       d="M 25,17.5 C 25,21.089851 22.089851,24 18.5,24 14.910149,24 12,21.089851 12,17.5 12,13.910149 14.910149,11 18.5,11 c 3.589851,0 6.5,2.910149 6.5,6.5 z"
       transform="matrix(1.5356816,0,0,1.5356816,-16.36898,1013.4665)" />
    <path
       style="fill:#313df2;fill-opacity:1;stroke:#89d7ff;stroke-width:0.83259279;stroke-linecap:round;stroke-linejoin:miter;stroke-miterlimit:4;stroke-opacity:1;stroke-dasharray:none"
       d="m 11.5,1038.5302 c 1,0 1,0 1,0 l 0,0"
       id="path3987"
       inkscape:connector-curvature="0" />
    <path
       style="fill:none;stroke:#89d7ff;stroke-width:0.35561121000000001px;stroke-linecap:round;stroke-linejoin:miter;stroke-opacity:1"
       d="m 6.5100999,1043.9203 11.9798001,0"
       id="path4033"
       inkscape:connector-curvature="0" />
    <path
       inkscape:connector-curvature="0"
       style="fill:#315af2;fill-opacity:1;fill-rule:nonzero;stroke:#3128f2;stroke-width:0.74400001999999998;stroke-linecap:round;stroke-linejoin:round;stroke-miterlimit:4;stroke-opacity:1;stroke-dasharray:none"
       d="m 18.711636,1040.3438 c 0,3.6704 -2.994302,6.6458 -6.68796,6.6458 -3.6936595,0 -6.6879607,-2.9754 -6.6879607,-6.6458 0,-3.6704 2.9943012,-6.6458 6.6879607,-6.6458 3.693658,0 6.68796,2.9754 6.68796,6.6458 z"
       id="path5286" />
    <path
       inkscape:connector-curvature="0"
       style="fill:#313df2;fill-opacity:1;fill-rule:nonzero;stroke:#3128f2;stroke-width:0.74440514999999996;stroke-linecap:round;stroke-linejoin:round;stroke-miterlimit:4;stroke-opacity:1"
       d="m 9.3303253,1034.5876 -1.8688925,0.8976 c -0.105613,0.098 -0.1929454,0.2142 -0.2920144,0.3185 l 0.3504173,2.2585 2.4237199,0.4054 1.1096544,-2.1427 -1.7228847,-1.7373 z"
       id="path5283" />
    <path
       inkscape:connector-curvature="0"
       style="fill:#313df2;fill-opacity:1;fill-rule:nonzero;stroke:#3128f2;stroke-width:0.74440514999999996;stroke-linecap:round;stroke-linejoin:round;stroke-miterlimit:4;stroke-opacity:1"
       d="m 5.3589288,1039.6548 c -0.022829,0.2234 -0.029201,0.4655 -0.029201,0.6949 0,0.7866 0.1564151,1.5294 0.4088202,2.2296 l 0.8760433,-1.6794 -1.2556621,-1.2451 z"
       id="path5280" />
    <path
       inkscape:connector-curvature="0"
       style="fill:#313df2;fill-opacity:1;fill-rule:nonzero;stroke:#3128f2;stroke-width:0.74440514999999996;stroke-linecap:round;stroke-linejoin:round;stroke-miterlimit:4;stroke-opacity:1"
       d="m 8.8923036,1044.114 -1.6936838,0.8108 c 0.8007625,0.8321 1.8067378,1.4643 2.9493462,1.7952 l 0.467223,-0.8687 -1.7228854,-1.7373 z"
       id="path5277" />
    <path
       inkscape:connector-curvature="0"
       style="fill:#313df2;fill-opacity:1;fill-rule:nonzero;stroke:#3128f2;stroke-width:0.74440514999999996;stroke-linecap:round;stroke-linejoin:round;stroke-miterlimit:4;stroke-opacity:1"
       d="m 17.243917,1042.4346 -2.190109,1.1003 0.350418,2.4033 0.175208,0.029 c 1.048688,-0.6581 1.905617,-1.6074 2.452922,-2.7219 l -0.788439,-0.8107 z"
       id="path4712" />
    <path
       sodipodi:type="star"
       style="fill:#313df2;fill-opacity:1;fill-rule:nonzero;stroke:#3128f2;stroke-width:0.80000000999999998;stroke-linecap:round;stroke-linejoin:round;stroke-miterlimit:4;stroke-opacity:1;stroke-dasharray:none"
       id="path5226"
       sodipodi:sides="5"
       sodipodi:cx="29"
       sodipodi:cy="3"
       sodipodi:r1="2.236068"
       sodipodi:r2="1.8090169"
       sodipodi:arg1="1.1071487"
       sodipodi:arg2="1.7354672"
       inkscape:flatsided="true"
       inkscape:rounded="1.9775848e-16"
       inkscape:randomized="0"
       d="M 30,5 27.406904,4.5690906 27.015412,1.9697513 29.366553,0.79418072 31.21113,2.6669774 z"
       transform="matrix(0.93444622,0,0,0.92658322,-15.290664,1038.5422)"
       inkscape:transform-center-x="-0.11327126"
       inkscape:transform-center-y="-0.10290962" />
    <path
       inkscape:connector-curvature="0"
       style="fill:#313df2;fill-opacity:1;fill-rule:nonzero;stroke:#3128f2;stroke-width:0.74440514999999996;stroke-linecap:round;stroke-linejoin:round;stroke-miterlimit:4;stroke-opacity:1"
       inkscape:transform-center-x="-0.11327126"
       inkscape:transform-center-y="-0.10290962"
       d="m 16.20518,1038.8565 -2.423109,-0.3993 -0.365828,-2.4085 2.197014,-1.0892 1.723658,1.7353 z"
       id="path5228" />
  </g>
</svg>
